mtllib new-1.mtl
v -0.327855 -0.929190 0.281369
v -0.327855 0.871230 -0.390885
v -0.327855 -0.929190 -0.390885
v -0.327855 0.871230 0.281369
v 0.340736 0.871230 -0.390885
v 0.340736 -0.929190 0.281369
v -0.308752 0.852128 0.281369
v 0.340736 -0.929190 -0.390885
v -0.308752 -0.896333 0.281369
v 0.340736 0.871230 0.281369
v -0.308752 0.331582 0.281369
v 0.321633 -0.896333 0.281369
v 0.321633 0.852128 0.281369
v -0.308752 0.378861 0.281369
v -0.308752 0.331582 -0.368119
v 0.321633 -0.896333 -0.368119
v -0.308752 0.852128 -0.368119
v 0.321633 0.331582 0.281369
v -0.308752 -0.896333 -0.368119
v 0.321633 0.331582 -0.368119
v 0.321633 0.852128 -0.368119
v 0.321633 0.378861 0.281369
v -0.308752 0.378861 -0.368119
v 0.321633 0.378861 -0.368119
v -0.129485 -0.900536 0.281369
v -0.327855 -0.900536 0.281369
v -0.327855 -0.929190 0.281369
vn -1.000000 0.000000 0.000000
vn 0.000000 0.000000 -1.000000
vn 0.000000 -1.000000 0.000000
vn 0.000000 0.000000 1.000000
vn 0.000000 1.000000 0.000000
vn 1.000000 0.000000 0.000000
vn 0.000000 0.000000 -1.000000
vn 0.000000 0.000000 1.000000
usemtl material-0
f 1//1 2//1 3//1
f 2//1 1//1 4//1
f 5//2 3//2 2//2
f 7//4 4//4 1//4
f 4//5 5//5 2//5
f 3//2 5//2 8//2
f 4//4 7//4 10//4
f 7//4 1//4 11//4
f 5//5 4//5 10//5
f 10//6 8//6 5//6
f 8//6 10//6 6//6
f 1//4 9//4 11//4
f 10//4 7//4 13//4
f 7//4 11//4 14//4
f 10//4 12//4 6//4
f 9//6 15//6 11//6
f 16//5 9//5 12//5
f 17//3 13//3 7//3
f 10//4 13//4 12//4
f 18//4 14//4 11//4
f 14//6 17//6 7//6
f 15//6 9//6 19//6
f 15//3 18//3 11//3
f 9//5 16//5 19//5
f 12//1 20//1 16//1
f 13//3 17//3 21//3
f 22//4 12//4 13//4
f 14//4 18//4 22//4
f 17//6 14//6 23//6
f 19//4 20//4 15//4
f 18//3 15//3 20//3
f 20//4 19//4 16//4
f 20//1 12//1 18//1
f 17//4 24//4 21//4
f 24//1 13//1 21//1
f 22//4 18//4 12//4
f 13//1 24//1 22//1
f 22//5 23//5 14//5
f 24//4 17//4 23//4
f 23//5 22//5 24//5
usemtl material-1
f 3//6 2//6 1//6
f 4//6 1//6 2//6
f 2//4 3//4 5//4
f 1//2 4//2 7//2
f 2//3 5//3 4//3
f 8//4 5//4 3//4
f 10//2 7//2 4//2
f 11//2 1//2 7//2
f 10//3 4//3 5//3
f 5//1 8//1 10//1
f 6//1 10//1 8//1
f 11//2 9//2 1//2
f 13//2 7//2 10//2
f 14//2 11//2 7//2
f 6//2 12//2 10//2
f 11//1 15//1 9//1
f 12//3 9//3 16//3
f 7//5 13//5 17//5
f 12//2 13//2 10//2
f 11//2 14//2 18//2
f 7//1 17//1 14//1
f 19//1 9//1 15//1
f 11//5 18//5 15//5
f 19//3 16//3 9//3
f 16//6 20//6 12//6
f 21//5 17//5 13//5
f 13//2 12//2 22//2
f 22//2 18//2 14//2
f 23//1 14//1 17//1
f 15//2 20//2 19//2
f 20//5 15//5 18//5
f 16//2 19//2 20//2
f 18//6 12//6 20//6
f 21//2 24//2 17//2
f 21//6 13//6 24//6
f 12//2 18//2 22//2
f 22//6 24//6 13//6
f 14//3 23//3 22//3
f 23//2 17//2 24//2
f 24//3 22//3 23//3
usemtl material-2
f 25//7 27//7 26//7
usemtl material-3
f 26//8 27//8 25//8