# SSTK version 0.8.0
# 6
mtllib original-6.mtl
o mesh4/mesh4-geometry#mesh4-geometry
v -0.299570 0.231285 0.336095
v -0.297681 0.231306 0.337983
v -0.298657 0.231171 0.337007
v -0.300398 0.231627 0.335266
v -0.299063 0.231306 0.339365
v -0.300951 0.231285 0.337476
v -0.301780 0.231627 0.336648
v -0.296804 0.231710 0.338861
v -0.300039 0.231171 0.338389
v -0.302524 0.232196 0.335904
v -0.301143 0.232196 0.334522
v -0.298185 0.231710 0.340243
v -0.296024 0.232383 0.339640
v -0.297406 0.232383 0.341022
v -0.303185 0.232993 0.335243
v -0.301803 0.232993 0.333861
v -0.295343 0.233326 0.340322
v -0.296724 0.233326 0.341704
v -0.303726 0.233984 0.334702
v -0.302344 0.233984 0.333320
v -0.294896 0.234272 0.340769
v -0.296278 0.234272 0.342150
v -0.302731 0.235134 0.332933
v -0.304113 0.235134 0.334315
v -0.294577 0.235354 0.341088
v -0.295958 0.235354 0.342469
v -0.302963 0.236444 0.332701
v -0.298665 0.235703 0.336999
v -0.304345 0.236444 0.334083
v -0.299624 0.235865 0.336040
v -0.300047 0.235703 0.338381
v -0.297695 0.235863 0.337969
v -0.294385 0.236571 0.341279
v -0.301006 0.235865 0.337422
v -0.303040 0.237914 0.332624
v -0.300303 0.236348 0.335361
v -0.299077 0.235863 0.339351
v -0.295767 0.236571 0.342661
v -0.301685 0.236348 0.336743
v -0.304422 0.237914 0.334006
v -0.300706 0.237078 0.334958
v -0.297016 0.236342 0.338649
v -0.295703 0.237925 0.342725
v -0.302088 0.237078 0.336340
v -0.304331 0.239578 0.334097
v -0.300841 0.237981 0.334823
v -0.298397 0.236342 0.340031
v -0.296615 0.237063 0.339049
v -0.294321 0.237925 0.341343
v -0.297997 0.237063 0.340431
v -0.302223 0.237981 0.336205
v -0.302949 0.239578 0.332715
v -0.295780 0.239433 0.342648
v -0.297863 0.237947 0.340565
v -0.302677 0.241024 0.332987
v -0.302090 0.238839 0.336338
v -0.300708 0.238839 0.334956
v -0.296481 0.237947 0.339183
v -0.294398 0.239433 0.341266
v -0.304059 0.241024 0.334369
v -0.299642 0.240022 0.336022
v -0.301693 0.239547 0.336735
v -0.300311 0.239547 0.335354
v -0.296011 0.240768 0.342417
v -0.297995 0.238837 0.340433
v -0.301024 0.240022 0.337404
v -0.302223 0.242255 0.333441
v -0.298697 0.240180 0.336968
v -0.296613 0.238837 0.339051
v -0.294629 0.240768 0.341036
v -0.298390 0.239553 0.340038
v -0.300078 0.240180 0.338350
v -0.303605 0.242255 0.334823
v -0.295013 0.241929 0.340651
v -0.297008 0.239553 0.338657
v -0.296395 0.241929 0.342033
v -0.299075 0.240023 0.339353
v -0.301587 0.243268 0.334077
v -0.295551 0.242918 0.340114
v -0.297693 0.240023 0.337971
v -0.296933 0.242918 0.341495
v -0.302969 0.243268 0.335459
v -0.302350 0.243905 0.336078
v -0.296209 0.243708 0.339456
v -0.297591 0.243708 0.340837
v -0.300968 0.243905 0.334696
v -0.301663 0.244360 0.336765
v -0.298336 0.244272 0.340092
v -0.296954 0.244272 0.338711
v -0.300281 0.244360 0.335383
v -0.300909 0.244633 0.337519
v -0.299167 0.244611 0.339261
v -0.297786 0.244611 0.337879
v -0.299527 0.244633 0.336138
v -0.300086 0.244723 0.338342
v -0.298704 0.244723 0.336960
vn 0.7071067811865477 0 -0.7071067811865474
vn 0.1446237298858642 -0.9788605383341393 0.14462372988586455
vn 0.0032746113969774927 -0.999989276862706 0.003274611396977807
vn -0.13066268364988287 -0.9827789813599095 -0.1306626836498826
vn -0.2686311447399257 -0.9250268191525228 -0.26863114473992555
vn 0.295746471146833 -0.9083325655333461 0.29574647114683333
vn -0.3998596769367863 -0.8247572233815341 -0.3998596769367862
vn -0.7071067811865477 0 0.7071067811865474
vn 0.4343261329659084 -0.7891271256557839 0.43432613296590883
vn -0.5119883468775922 -0.6897360838198192 -0.5119883468775921
vn 0.5441490042641399 -0.6385951161077649 0.5441490042641404
vn -0.6025547089372787 -0.5233121873939328 -0.6025547089372788
vn 0.6231922096012298 -0.47250707908419026 0.6231922096012302
vn -0.6655590804222429 -0.33773098900603854 -0.665559080422243
vn 0.6740416372467201 -0.30221803803797304 0.6740416372467204
vn -0.6980969046403449 -0.15912706703492582 -0.6980969046403451
vn 0.6999216324485421 -0.14219499590750556 0.6999216324485423
vn -0.7071060892107013 0.0013990004628553303 -0.7071060892107015
vn 0.20379588041988164 0.957566957579349 0.20379588041988142
vn 0.0008138799280570575 0.9999993375992433 0.0008138799280567438
vn -0.20164492494710604 0.9584772550698071 -0.2016449249471064
vn 0.448477361417542 0.7731339551409695 0.4484773614175419
vn -0.4465627260048479 0.7753473179719125 -0.44656272600484836
vn 0.7071042247324515 0.0026890018663773543 0.7071042247324517
vn -0.6970725539187882 0.1678681302280919 -0.6970725539187885
vn 0.6411040966078693 0.42186618094511397 0.6411040966078693
vn 0.707102019189774 -0.0036700021101415156 0.7071020191897743
vn -0.6402719378698702 0.4243862523135279 -0.6402719378698707
vn 0.6985491462357369 0.1551069972201308 0.6985491462357372
vn -0.6590791333601022 0.36225597571136503 -0.6590791333601025
vn 0.6388172734030727 -0.42874815731817106 0.6388172734030731
vn -0.707105175641731 0.0021310000828213527 -0.7071051756417314
vn 0.6669925168234468 0.33202705462514337 0.666992516823447
vn -0.6414224368214181 -0.4208972737903486 -0.6414224368214182
vn -0.5822640758072357 0.5673950053081986 -0.5822640758072362
vn 0.44601381071687873 -0.7759789696245744 0.4460138107168792
vn 0.2032960554025149 -0.9577794253979123 0.20329605540251527
vn 0.0027266017201082625 -0.9999925656154249 0.0027266017201085777
vn 0.604123895015645 0.5196812859265297 0.604123895015645
vn -0.44465917098279384 -0.7775322779935175 -0.4446591709827938
vn -0.47521612866544677 0.7404993329588154 -0.4752161286654472
vn -0.196174044505307 -0.960745277649003 -0.19617404450530682
vn 0.5118751827501512 0.6899040473638335 0.5118751827501511
vn -0.3594859156217265 0.8611270248570866 -0.3594859156217269
vn 0.3978725847314546 0.8266769699454697 0.3978725847314544
vn -0.23854457797641204 0.9413782282569056 -0.2385445779764124
vn 0.2661209194941387 0.9264768277810236 0.2661209194941385
vn -0.11557870383334298 0.9865511271294604 -0.11557870383334334
vn 0.1289372981724244 0.9832346343981128 0.12893729817242416
vn 0.0030271226985387036 0.999990836486183 0.003027122698538391
vn -0.1446237298858642 0.9788605383341393 -0.14462372988586455
vn -0.0032746113969774927 0.999989276862706 -0.003274611396977807
vn 0.13066268364988287 0.9827789813599095 0.1306626836498826
vn 0.2686311447399257 0.9250268191525228 0.26863114473992555
vn -0.295746471146833 0.9083325655333461 -0.29574647114683333
vn 0.3998596769367863 0.8247572233815341 0.3998596769367862
vn -0.4343261329659084 0.7891271256557839 -0.43432613296590883
vn 0.5119883468775922 0.6897360838198192 0.5119883468775921
vn -0.5441490042641399 0.6385951161077649 -0.5441490042641404
vn 0.6025547089372787 0.5233121873939328 0.6025547089372788
vn -0.6231922096012298 0.47250707908419026 -0.6231922096012302
vn 0.6655590804222429 0.33773098900603854 0.665559080422243
vn -0.6740416372467201 0.30221803803797304 -0.6740416372467204
vn 0.6980969046403449 0.15912706703492582 0.6980969046403451
vn -0.6999216324485421 0.14219499590750556 -0.6999216324485423
vn 0.7071060892107013 -0.0013990004628553303 0.7071060892107015
vn -0.0008138799280570575 -0.9999993375992433 -0.0008138799280567438
vn -0.20379588041988164 -0.957566957579349 -0.20379588041988142
vn 0.20164492494710604 -0.9584772550698071 0.2016449249471064
vn -0.448477361417542 -0.7731339551409695 -0.4484773614175419
vn 0.4465627260048479 -0.7753473179719125 0.44656272600484836
vn -0.7071042247324515 -0.0026890018663773543 -0.7071042247324517
vn 0.6970725539187882 -0.1678681302280919 0.6970725539187885
vn -0.6411040966078693 -0.42186618094511397 -0.6411040966078693
vn -0.707102019189774 0.0036700021101415156 -0.7071020191897743
vn 0.6402719378698702 -0.4243862523135279 0.6402719378698707
vn -0.6985491462357369 -0.1551069972201308 -0.6985491462357372
vn 0.6590791333601022 -0.36225597571136503 0.6590791333601025
vn -0.6388172734030727 0.42874815731817106 -0.6388172734030731
vn 0.707105175641731 -0.0021310000828213527 0.7071051756417314
vn -0.6669925168234468 -0.33202705462514337 -0.666992516823447
vn 0.6414224368214181 0.4208972737903486 0.6414224368214182
vn 0.5822640758072357 -0.5673950053081986 0.5822640758072362
vn -0.44601381071687873 0.7759789696245744 -0.4460138107168792
vn -0.2032960554025149 0.9577794253979123 -0.20329605540251527
vn -0.0027266017201082625 0.9999925656154249 -0.0027266017201085777
vn -0.604123895015645 -0.5196812859265297 -0.604123895015645
vn 0.44465917098279384 0.7775322779935175 0.4446591709827938
vn 0.47521612866544677 -0.7404993329588154 0.4752161286654472
vn 0.196174044505307 0.960745277649003 0.19617404450530682
vn -0.5118751827501512 -0.6899040473638335 -0.5118751827501511
vn 0.3594859156217265 -0.8611270248570866 0.3594859156217269
vn -0.3978725847314546 -0.8266769699454697 -0.3978725847314544
vn 0.23854457797641204 -0.9413782282569056 0.2385445779764124
vn -0.2661209194941387 -0.9264768277810236 -0.2661209194941385
vn 0.11557870383334298 -0.9865511271294604 0.11557870383334334
vn -0.1289372981724244 -0.9832346343981128 -0.12893729817242416
vn -0.0030271226985387036 -0.999990836486183 -0.003027122698538391
usemtl material_0_0
f 1//1 2//1 3//1
f 2//1 1//1 4//1
f 5//2 3//3 2//2
f 3//3 6//4 1//4
f 1//4 7//5 4//5
f 2//1 4//1 8//1
f 3//3 5//2 9//3
f 8//6 5//2 2//2
f 6//4 3//3 9//3
f 7//5 1//4 6//4
f 10//7 4//5 7//5
f 8//1 4//1 11//1
f 5//8 6//8 9//8
f 5//2 8//6 12//6
f 6//8 5//8 7//8
f 4//5 10//7 11//7
f 7//8 12//8 10//8
f 8//1 11//1 13//1
f 8//6 14//9 12//6
f 7//8 5//8 12//8
f 15//10 11//7 10//7
f 10//8 12//8 14//8
f 13//1 11//1 16//1
f 14//9 8//6 13//9
f 11//7 15//10 16//10
f 10//8 14//8 15//8
f 13//1 16//1 17//1
f 13//9 18//11 14//9
f 19//12 16//10 15//10
f 15//8 14//8 18//8
f 17//1 16//1 20//1
f 18//11 13//9 17//11
f 16//10 19//12 20//12
f 15//8 18//8 19//8
f 17//1 20//1 21//1
f 17//11 22//13 18//11
f 19//12 23//14 20//12
f 19//8 18//8 22//8
f 21//1 20//1 23//1
f 22//13 17//11 21//13
f 23//14 19//12 24//14
f 19//8 22//8 24//8
f 21//1 23//1 25//1
f 21//13 26//15 22//13
f 24//14 27//16 23//14
f 24//8 22//8 26//8
f 25//1 23//1 28//1
f 26//15 21//13 25//15
f 27//16 24//14 29//16
f 30//1 23//1 27//1
f 24//8 26//8 31//8
f 28//1 23//1 30//1
f 32//1 25//1 28//1
f 33//17 26//15 25//15
f 24//8 34//8 29//8
f 29//16 35//18 27//16
f 30//1 27//1 36//1
f 26//8 37//8 31//8
f 24//8 31//8 34//8
f 30//19 31//20 28//20
f 25//1 32//1 33//1
f 28//20 37//21 32//21
f 26//15 33//17 38//17
f 29//8 34//8 39//8
f 35//18 29//16 40//18
f 41//1 27//1 35//1
f 36//1 27//1 41//1
f 36//22 34//19 30//19
f 37//8 26//8 38//8
f 37//21 28//20 31//20
f 31//20 30//19 34//19
f 33//1 32//1 42//1
f 37//21 42//23 32//21
f 33//17 43//24 38//17
f 34//19 36//22 39//22
f 29//8 39//8 44//8
f 29//8 44//8 40//8
f 45//25 35//18 40//18
f 41//1 35//1 46//1
f 44//26 36//22 41//26
f 37//8 38//8 47//8
f 33//1 42//1 48//1
f 42//23 37//21 47//23
f 43//24 33//17 49//24
f 50//8 38//8 43//8
f 36//22 44//26 39//22
f 40//8 44//8 51//8
f 35//18 45//25 52//25
f 40//8 51//8 45//8
f 46//1 35//1 52//1
f 51//27 41//26 46//27
f 41//26 51//27 44//26
f 47//8 38//8 50//8
f 47//23 48//28 42//23
f 33//1 48//1 49//1
f 49//24 53//29 43//24
f 50//8 43//8 54//8
f 45//25 55//30 52//25
f 45//8 51//8 56//8
f 46//1 52//1 57//1
f 57//31 51//27 46//27
f 48//28 47//23 50//28
f 49//1 48//1 58//1
f 53//29 49//24 59//29
f 54//8 43//8 53//8
f 58//32 50//28 54//32
f 55//30 45//25 60//30
f 61//1 52//1 55//1
f 51//27 57//31 56//31
f 45//8 56//8 62//8
f 57//1 52//1 63//1
f 50//28 58//32 48//28
f 49//1 58//1 59//1
f 59//29 64//33 53//29
f 54//8 53//8 65//8
f 65//34 58//32 54//32
f 45//8 66//8 60//8
f 60//30 67//35 55//30
f 63//1 52//1 61//1
f 61//1 55//1 68//1
f 57//31 62//36 56//31
f 45//8 62//8 66//8
f 62//36 57//31 63//36
f 59//1 58//1 69//1
f 64//33 59//29 70//33
f 71//8 53//8 64//8
f 65//8 53//8 71//8
f 58//32 65//34 69//34
f 60//8 66//8 72//8
f 67//35 60//30 73//35
f 74//1 55//1 67//1
f 66//37 63//36 61//37
f 68//1 55//1 70//1
f 68//38 66//37 61//37
f 63//36 66//37 62//36
f 59//1 69//1 75//1
f 59//1 75//1 70//1
f 70//33 76//39 64//33
f 71//8 64//8 77//8
f 75//40 65//34 71//40
f 65//34 75//40 69//34
f 66//37 68//38 72//38
f 60//8 72//8 64//8
f 60//8 76//8 73//8
f 73//35 78//41 67//35
f 70//1 55//1 74//1
f 74//1 67//1 79//1
f 70//1 80//1 68//1
f 70//1 75//1 80//1
f 76//39 70//33 74//39
f 60//8 64//8 76//8
f 77//8 64//8 72//8
f 80//42 71//40 77//42
f 71//40 80//42 75//40
f 80//42 72//38 68//38
f 73//8 76//8 81//8
f 78//41 73//35 82//41
f 79//1 67//1 78//1
f 81//43 74//39 79//43
f 74//39 81//43 76//39
f 72//38 80//42 77//42
f 73//8 81//8 82//8
f 83//44 78//41 82//41
f 79//1 78//1 84//1
f 84//45 81//43 79//43
f 82//8 81//8 85//8
f 78//41 83//44 86//44
f 82//8 85//8 83//8
f 84//1 78//1 86//1
f 81//43 84//45 85//45
f 87//46 86//44 83//44
f 83//8 85//8 88//8
f 84//1 86//1 89//1
f 89//47 85//45 84//45
f 86//44 87//46 90//46
f 83//8 88//8 87//8
f 85//45 89//47 88//47
f 89//1 86//1 90//1
f 91//48 90//46 87//46
f 87//8 88//8 92//8
f 93//49 88//47 89//47
f 89//1 90//1 93//1
f 90//46 91//48 94//48
f 87//8 92//8 91//8
f 88//47 93//49 92//49
f 93//1 90//1 94//1
f 95//50 94//48 91//48
f 91//8 92//8 95//8
f 96//50 92//49 93//49
f 93//1 94//1 96//1
f 94//48 95//50 96//50
f 92//49 96//50 95//50
usemtl material_1_0
f 3//8 2//8 1//8
f 4//8 1//8 2//8
f 2//51 3//52 5//51
f 1//53 6//53 3//52
f 4//54 7//54 1//53
f 8//8 4//8 2//8
f 9//52 5//51 3//52
f 2//51 5//51 8//55
f 9//52 3//52 6//53
f 6//53 1//53 7//54
f 7//54 4//54 10//56
f 11//8 4//8 8//8
f 9//1 6//1 5//1
f 12//55 8//55 5//51
f 7//1 5//1 6//1
f 11//56 10//56 4//54
f 10//1 12//1 7//1
f 13//8 11//8 8//8
f 12//55 14//57 8//55
f 12//1 5//1 7//1
f 10//56 11//56 15//58
f 14//1 12//1 10//1
f 16//8 11//8 13//8
f 13//57 8//55 14//57
f 16//58 15//58 11//56
f 15//1 14//1 10//1
f 17//8 16//8 13//8
f 14//57 18//59 13//57
f 15//58 16//58 19//60
f 18//1 14//1 15//1
f 20//8 16//8 17//8
f 17//59 13//57 18//59
f 20//60 19//60 16//58
f 19//1 18//1 15//1
f 21//8 20//8 17//8
f 18//59 22//61 17//59
f 20//60 23//62 19//60
f 22//1 18//1 19//1
f 23//8 20//8 21//8
f 21//61 17//59 22//61
f 24//62 19//60 23//62
f 24//1 22//1 19//1
f 25//8 23//8 21//8
f 22//61 26//63 21//61
f 23//62 27//64 24//62
f 26//1 22//1 24//1
f 28//8 23//8 25//8
f 25//63 21//61 26//63
f 29//64 24//62 27//64
f 27//8 23//8 30//8
f 31//1 26//1 24//1
f 30//8 23//8 28//8
f 28//8 25//8 32//8
f 25//63 26//63 33//65
f 29//1 34//1 24//1
f 27//64 35//66 29//64
f 36//8 27//8 30//8
f 31//1 37//1 26//1
f 34//1 31//1 24//1
f 28//67 31//67 30//68
f 33//8 32//8 25//8
f 32//69 37//69 28//67
f 38//65 33//65 26//63
f 39//1 34//1 29//1
f 40//66 29//64 35//66
f 35//8 27//8 41//8
f 41//8 27//8 36//8
f 30//68 34//68 36//70
f 38//1 26//1 37//1
f 31//67 28//67 37//69
f 34//68 30//68 31//67
f 42//8 32//8 33//8
f 32//69 42//71 37//69
f 38//65 43//72 33//65
f 39//70 36//70 34//68
f 44//1 39//1 29//1
f 40//1 44//1 29//1
f 40//66 35//66 45//73
f 46//8 35//8 41//8
f 41//74 36//70 44//74
f 47//1 38//1 37//1
f 48//8 42//8 33//8
f 47//71 37//69 42//71
f 49//72 33//65 43//72
f 43//1 38//1 50//1
f 39//70 44//74 36//70
f 51//1 44//1 40//1
f 52//73 45//73 35//66
f 45//1 51//1 40//1
f 52//8 35//8 46//8
f 46//75 41//74 51//75
f 44//74 51//75 41//74
f 50//1 38//1 47//1
f 42//71 48//76 47//71
f 49//8 48//8 33//8
f 43//72 53//77 49//72
f 54//1 43//1 50//1
f 52//73 55//78 45//73
f 56//1 51//1 45//1
f 57//8 52//8 46//8
f 46//75 51//75 57//79
f 50//76 47//71 48//76
f 58//8 48//8 49//8
f 59//77 49//72 53//77
f 53//1 43//1 54//1
f 54//80 50//76 58//80
f 60//78 45//73 55//78
f 55//8 52//8 61//8
f 56//79 57//79 51//75
f 62//1 56//1 45//1
f 63//8 52//8 57//8
f 48//76 58//80 50//76
f 59//8 58//8 49//8
f 53//77 64//81 59//77
f 65//1 53//1 54//1
f 54//80 58//80 65//82
f 60//1 66//1 45//1
f 55//78 67//83 60//78
f 61//8 52//8 63//8
f 68//8 55//8 61//8
f 56//79 62//84 57//79
f 66//1 62//1 45//1
f 63//84 57//79 62//84
f 69//8 58//8 59//8
f 70//81 59//77 64//81
f 64//1 53//1 71//1
f 71//1 53//1 65//1
f 69//82 65//82 58//80
f 72//1 66//1 60//1
f 73//83 60//78 67//83
f 67//8 55//8 74//8
f 61//85 63//84 66//85
f 70//8 55//8 68//8
f 61//85 66//85 68//86
f 62//84 66//85 63//84
f 75//8 69//8 59//8
f 70//8 75//8 59//8
f 64//81 76//87 70//81
f 77//1 64//1 71//1
f 71//88 65//82 75//88
f 69//82 75//88 65//82
f 72//86 68//86 66//85
f 64//1 72//1 60//1
f 73//1 76//1 60//1
f 67//83 78//89 73//83
f 74//8 55//8 70//8
f 79//8 67//8 74//8
f 68//8 80//8 70//8
f 80//8 75//8 70//8
f 74//87 70//81 76//87
f 76//1 64//1 60//1
f 72//1 64//1 77//1
f 77//90 71//88 80//90
f 75//88 80//90 71//88
f 68//86 72//86 80//90
f 81//1 76//1 73//1
f 82//89 73//83 78//89
f 78//8 67//8 79//8
f 79//91 74//87 81//91
f 76//87 81//91 74//87
f 77//90 80//90 72//86
f 82//1 81//1 73//1
f 82//89 78//89 83//92
f 84//8 78//8 79//8
f 79//91 81//91 84//93
f 85//1 81//1 82//1
f 86//92 83//92 78//89
f 83//1 85//1 82//1
f 86//8 78//8 84//8
f 85//93 84//93 81//91
f 83//92 86//92 87//94
f 88//1 85//1 83//1
f 89//8 86//8 84//8
f 84//93 85//93 89//95
f 90//94 87//94 86//92
f 87//1 88//1 83//1
f 88//95 89//95 85//93
f 90//8 86//8 89//8
f 87//94 90//94 91//96
f 92//1 88//1 87//1
f 89//95 88//95 93//97
f 93//8 90//8 89//8
f 94//96 91//96 90//94
f 91//1 92//1 87//1
f 92//97 93//97 88//95
f 94//8 90//8 93//8
f 91//96 94//96 95//98
f 95//1 92//1 91//1
f 93//97 92//97 96//98
f 96//8 94//8 93//8
f 96//98 95//98 94//96
f 95//98 96//98 92//97
