# SSTK version 0.8.0
# 20
mtllib original-20.mtl
o mesh16/mesh16-geometry#mesh16-geometry
v -0.005561 0.722910 0.406685
v -0.007105 0.723480 0.406685
v -0.007105 0.724095 0.406685
v -0.006618 0.723106 0.406685
v -0.007105 0.711182 0.406685
v -0.007105 0.724095 0.407657
v -0.005909 0.722562 0.406685
v -0.005909 0.722562 0.407657
v -0.007589 0.711182 0.406685
v -0.007105 0.711797 0.406685
v -0.005561 0.722910 0.407657
v -0.007589 0.724095 0.407657
v -0.004802 0.721120 0.406685
v -0.007105 0.723480 0.407657
v -0.007589 0.711797 0.406685
v -0.007105 0.711182 0.407657
v -0.007105 0.711797 0.407657
v -0.006618 0.712171 0.406685
v -0.006618 0.723106 0.407657
v -0.004377 0.721366 0.407657
v -0.007589 0.724095 0.406685
v -0.004377 0.721366 0.406685
v -0.004802 0.721120 0.407657
v -0.007589 0.714771 0.406685
v -0.007589 0.711182 0.407657
v -0.005561 0.712367 0.406685
v -0.007589 0.721015 0.406685
v -0.007589 0.721015 0.407657
v -0.004107 0.719441 0.406685
v -0.004107 0.719441 0.407657
v -0.007589 0.715255 0.406685
v -0.007589 0.714771 0.407657
v -0.005561 0.712367 0.407657
v -0.005909 0.712715 0.406685
v -0.003632 0.719568 0.407657
v -0.007589 0.720531 0.406685
v -0.007589 0.720531 0.407657
v -0.003632 0.719568 0.406685
v -0.014076 0.714771 0.406685
v -0.007589 0.715255 0.407657
v -0.004377 0.713911 0.406685
v -0.005909 0.712715 0.407657
v -0.004802 0.714157 0.406685
v -0.014076 0.720531 0.406685
v -0.014076 0.721015 0.407657
v -0.006618 0.712171 0.407657
v -0.003869 0.717639 0.406685
v -0.003869 0.717639 0.407657
v -0.014076 0.715255 0.406685
v -0.014076 0.714771 0.407657
v -0.014076 0.715255 0.407657
v -0.004377 0.713911 0.407657
v -0.003378 0.717639 0.407657
v -0.014076 0.721015 0.406685
v -0.014076 0.720531 0.407657
v -0.003632 0.715709 0.406685
v -0.014076 0.711182 0.406685
v -0.014076 0.711915 0.406685
v -0.004802 0.714157 0.407657
v -0.004107 0.715836 0.406685
v -0.003378 0.717639 0.406685
v -0.003632 0.715709 0.407657
v -0.014076 0.723362 0.406685
v -0.014076 0.724095 0.407657
v -0.004107 0.715836 0.407657
v -0.014076 0.711182 0.407657
v -0.014076 0.724095 0.406685
v -0.014560 0.711182 0.406685
v -0.014560 0.724095 0.407657
v -0.014560 0.711182 0.407657
v -0.014560 0.723362 0.407657
v -0.014560 0.711915 0.406685
v -0.014560 0.724095 0.406685
v -0.014560 0.711915 0.407657
v -0.016104 0.712367 0.406685
v -0.015141 0.722916 0.407657
v -0.014560 0.723362 0.406685
v -0.015141 0.712361 0.406685
v -0.016104 0.722910 0.407657
v -0.015141 0.712361 0.407657
v -0.016104 0.712367 0.407657
v -0.015690 0.712782 0.406685
v -0.015690 0.722495 0.407657
v -0.015141 0.722916 0.406685
v -0.016104 0.722910 0.406685
v -0.015690 0.712782 0.407657
v -0.017289 0.713911 0.406685
v -0.016781 0.714204 0.406685
v -0.015690 0.722495 0.406685
v -0.017289 0.721366 0.407657
v -0.016781 0.721073 0.407657
v -0.016781 0.714204 0.407657
v -0.017289 0.713911 0.407657
v -0.016781 0.721073 0.406685
v -0.017289 0.721366 0.406685
v -0.018034 0.715709 0.406685
v -0.017467 0.715861 0.406685
v -0.018034 0.719568 0.407657
v -0.017467 0.719416 0.407657
v -0.017467 0.715861 0.407657
v -0.018034 0.715709 0.407657
v -0.017701 0.717639 0.406685
v -0.017467 0.719416 0.406685
v -0.018034 0.719568 0.406685
v -0.017701 0.717639 0.407657
v -0.018288 0.717639 0.406685
v -0.018288 0.717639 0.407657
vn 0 0 -1
vn 0.32143908749235633 0.9469302577445083 0
vn 0.7071067811865475 0.7071067811865475 0
vn -0.6087613233345314 -0.7933534213778813 0
vn -0.7071067811865475 -0.7071067811865475 0
vn 0 1 0
vn 0.32143908749235633 -0.9469302577445083 0
vn 0 -1 0
vn 1 0 0
vn 0 0 1
vn 0.8660253028382761 0.5000001748438417 0
vn -0.8660253028382761 -0.5000001748438417 0
vn -1 0 0
vn 0.7071067811865475 -0.7071067811865475 0
vn -0.6087613233345314 0.7933534213778813 0
vn -0.9659258492011171 -0.2588189595935754 0
vn -0.7071067811865475 0.7071067811865475 0
vn 0.9659258492011171 0.2588189595935754 0
vn 0.8660253028382761 -0.5000001748438417 0
vn -0.8660253028382761 0.5000001748438417 0
vn 0.9659258492011171 -0.2588189595935754 0
vn -0.9659258492011171 0.2588189595935754 0
vn -0.32143908749235633 -0.9469302577445083 0
vn -0.32143908749235633 0.9469302577445083 0
vn 0.6087613233345314 -0.7933534213778813 0
vn 0.6087613233345314 0.7933534213778813 0
usemtl material_0_0
f 1//1 2//1 3//1
f 2//1 1//1 4//1
f 5//1 3//1 2//1
f 6//2 1//3 3//2
f 4//1 1//1 7//1
f 4//4 8//5 2//4
f 9//1 3//1 5//1
f 5//1 2//1 10//1
f 1//3 6//2 11//3
f 3//2 12//6 6//2
f 7//1 1//1 13//1
f 8//5 4//4 7//5
f 2//4 8//5 14//4
f 15//1 3//1 9//1
f 16//7 9//8 5//7
f 2//9 17//9 10//9
f 5//1 10//1 18//1
f 6//10 19//10 11//10
f 20//11 1//3 11//3
f 12//6 3//2 21//6
f 12//10 16//10 6//10
f 13//1 1//1 22//1
f 23//12 7//5 13//12
f 7//5 23//12 8//5
f 14//4 8//5 19//4
f 17//9 2//9 14//9
f 24//1 3//1 15//1
f 25//13 15//13 9//13
f 9//8 16//7 25//8
f 26//14 16//7 5//7
f 17//15 18//15 10//15
f 5//1 18//1 26//1
f 6//10 14//10 19//10
f 11//10 19//10 8//10
f 1//3 20//11 22//11
f 11//10 23//10 20//10
f 3//1 27//1 21//1
f 21//13 28//13 12//13
f 28//10 16//10 12//10
f 6//10 16//10 17//10
f 13//1 22//1 29//1
f 13//12 30//16 23//12
f 11//10 8//10 23//10
f 6//10 17//10 14//10
f 31//1 3//1 24//1
f 15//13 32//13 24//13
f 15//13 25//13 32//13
f 16//10 32//10 25//10
f 16//7 26//14 33//14
f 18//15 17//15 34//17
f 26//1 18//1 34//1
f 35//18 22//11 20//11
f 20//10 23//10 30//10
f 27//1 3//1 36//1
f 28//13 21//13 27//13
f 37//10 16//10 28//10
f 33//10 17//10 16//10
f 29//1 22//1 38//1
f 30//16 13//12 29//16
f 36//1 3//1 31//1
f 39//1 31//1 24//1
f 32//8 39//8 24//8
f 32//10 16//10 40//10
f 41//19 33//14 26//14
f 34//17 17//15 42//17
f 26//1 34//1 43//1
f 22//11 35//18 38//18
f 20//10 30//10 35//10
f 44//1 27//1 36//1
f 27//6 45//6 28//6
f 40//10 16//10 37//10
f 45//10 37//10 28//10
f 17//10 33//10 46//10
f 29//1 38//1 47//1
f 29//16 48//13 30//16
f 40//13 36//13 31//13
f 31//1 39//1 49//1
f 39//8 32//8 50//8
f 51//10 32//10 40//10
f 33//14 41//19 52//19
f 26//1 43//1 41//1
f 42//17 17//15 46//15
f 42//17 43//20 34//17
f 53//9 38//18 35//18
f 35//10 30//10 48//10
f 27//1 44//1 54//1
f 37//8 44//8 36//8
f 45//6 27//6 54//6
f 36//13 40//13 37//13
f 37//10 45//10 55//10
f 46//10 33//10 42//10
f 56//1 47//1 38//1
f 48//13 29//16 47//13
f 31//6 51//6 40//6
f 57//1 49//1 39//1
f 51//6 31//6 49//6
f 32//10 51//10 50//10
f 50//9 58//9 39//9
f 56//21 52//19 41//19
f 59//10 33//10 52//10
f 41//1 43//1 60//1
f 43//20 42//17 59//20
f 38//18 53//9 61//9
f 35//10 62//10 53//10
f 48//10 62//10 35//10
f 57//1 54//1 44//1
f 44//8 37//8 55//8
f 63//9 45//9 54//9
f 64//10 55//10 45//10
f 42//10 33//10 59//10
f 56//1 60//1 47//1
f 56//1 38//1 61//1
f 47//13 65//22 48//13
f 57//1 44//1 49//1
f 57//1 39//1 58//1
f 44//9 51//9 49//9
f 64//10 50//10 51//10
f 66//9 58//9 50//9
f 52//19 56//21 62//21
f 41//1 60//1 56//1
f 59//10 52//10 65//10
f 59//20 60//22 43//20
f 62//21 61//9 53//9
f 65//10 62//10 48//10
f 57//1 63//1 54//1
f 51//9 44//9 55//9
f 45//9 63//9 64//9
f 64//10 51//10 55//10
f 65//22 47//13 60//22
f 61//9 62//21 56//21
f 58//9 66//9 57//9
f 64//10 66//10 50//10
f 65//10 52//10 62//10
f 60//22 59//20 65//22
f 57//1 67//1 63//1
f 64//9 63//9 67//9
f 66//8 68//23 57//8
f 69//10 66//10 64//10
f 68//1 67//1 57//1
f 67//6 69//24 64//6
f 68//23 66//8 70//23
f 71//10 66//10 69//10
f 72//1 67//1 68//1
f 69//24 67//6 73//24
f 74//10 70//10 66//10
f 70//23 75//5 68//23
f 74//10 66//10 71//10
f 69//10 76//10 71//10
f 77//1 67//1 72//1
f 68//1 78//1 72//1
f 77//1 73//1 67//1
f 73//24 79//17 69//24
f 80//10 70//10 74//10
f 75//5 70//23 81//5
f 75//1 82//1 68//1
f 77//13 74//13 71//13
f 69//10 83//10 76//10
f 83//14 71//25 76//25
f 74//13 77//13 72//13
f 68//1 82//1 78//1
f 78//26 74//26 72//26
f 84//1 73//1 77//1
f 79//17 73//24 85//17
f 79//10 83//10 69//10
f 86//10 70//10 80//10
f 74//26 82//3 80//26
f 86//10 81//10 70//10
f 81//5 87//12 75//5
f 75//1 88//1 82//1
f 71//25 84//25 77//25
f 89//14 71//25 83//14
f 74//26 78//26 82//3
f 89//1 73//1 84//1
f 89//1 85//1 73//1
f 85//17 90//20 79//17
f 79//10 91//10 83//10
f 80//26 82//3 86//3
f 92//10 81//10 86//10
f 87//12 81//5 93//12
f 87//1 88//1 75//1
f 88//11 86//3 82//3
f 84//25 71//25 89//14
f 91//19 89//14 83//14
f 94//1 85//1 89//1
f 90//20 85//17 95//20
f 90//10 91//10 79//10
f 92//10 93//10 81//10
f 86//3 88//11 92//11
f 93//12 96//16 87//12
f 87//1 97//1 88//1
f 89//14 91//19 94//19
f 94//1 95//1 85//1
f 95//20 98//22 90//20
f 90//10 99//10 91//10
f 100//10 93//10 92//10
f 97//18 92//11 88//11
f 96//16 93//12 101//16
f 102//1 87//1 96//1
f 87//1 102//1 97//1
f 99//21 94//19 91//19
f 103//1 95//1 94//1
f 98//22 95//20 104//22
f 105//10 90//10 98//10
f 90//10 105//10 99//10
f 105//10 93//10 100//10
f 92//11 97//18 100//18
f 98//10 101//10 93//10
f 101//16 106//13 96//16
f 96//1 95//1 102//1
f 102//9 100//18 97//18
f 94//19 99//21 103//21
f 102//1 95//1 103//1
f 96//1 104//1 95//1
f 104//22 107//13 98//22
f 98//10 93//10 105//10
f 105//9 103//21 99//21
f 100//18 102//9 105//9
f 101//10 98//10 107//10
f 106//13 101//16 107//13
f 104//1 96//1 106//1
f 103//21 105//9 102//9
f 107//13 104//22 106//13
usemtl material_1_0
f 3//10 2//10 1//10
f 4//10 1//10 2//10
f 2//10 3//10 5//10
f 3//23 1//5 6//23
f 7//10 1//10 4//10
f 2//26 8//3 4//26
f 5//10 3//10 9//10
f 10//10 2//10 5//10
f 11//5 6//23 1//5
f 6//23 12//8 3//23
f 13//10 1//10 7//10
f 7//3 4//26 8//3
f 14//26 8//3 2//26
f 9//10 3//10 15//10
f 5//24 9//6 16//24
f 10//13 17//13 2//13
f 18//10 10//10 5//10
f 11//1 19//1 6//1
f 11//5 1//5 20//12
f 21//8 3//23 12//8
f 6//1 16//1 12//1
f 22//10 1//10 13//10
f 13//11 7//3 23//11
f 8//3 23//11 7//3
f 19//26 8//3 14//26
f 14//13 2//13 17//13
f 15//10 3//10 24//10
f 9//9 15//9 25//9
f 25//6 16//24 9//6
f 5//24 16//24 26//17
f 10//25 18//25 17//25
f 26//10 18//10 5//10
f 19//1 14//1 6//1
f 8//1 19//1 11//1
f 22//12 20//12 1//5
f 20//1 23//1 11//1
f 21//10 27//10 3//10
f 12//9 28//9 21//9
f 12//1 16//1 28//1
f 17//1 16//1 6//1
f 29//10 22//10 13//10
f 23//11 30//18 13//11
f 23//1 8//1 11//1
f 14//1 17//1 6//1
f 24//10 3//10 31//10
f 24//9 32//9 15//9
f 32//9 25//9 15//9
f 25//1 32//1 16//1
f 33//17 26//17 16//24
f 34//14 17//25 18//25
f 34//10 18//10 26//10
f 20//12 22//12 35//16
f 30//1 23//1 20//1
f 36//10 3//10 27//10
f 27//9 21//9 28//9
f 28//1 16//1 37//1
f 16//1 17//1 33//1
f 38//10 22//10 29//10
f 29//18 13//11 30//18
f 31//10 3//10 36//10
f 24//10 31//10 39//10
f 24//6 39//6 32//6
f 40//1 16//1 32//1
f 26//17 33//17 41//20
f 42//14 17//25 34//14
f 43//10 34//10 26//10
f 38//16 35//16 22//12
f 35//1 30//1 20//1
f 36//10 27//10 44//10
f 28//8 45//8 27//8
f 37//1 16//1 40//1
f 28//1 37//1 45//1
f 46//1 33//1 17//1
f 47//10 38//10 29//10
f 30//18 48//9 29//18
f 31//9 36//9 40//9
f 49//10 39//10 31//10
f 50//6 32//6 39//6
f 40//1 32//1 51//1
f 52//20 41//20 33//17
f 41//10 43//10 26//10
f 46//25 17//25 42//14
f 34//14 43//19 42//14
f 35//16 38//16 53//13
f 48//1 30//1 35//1
f 54//10 44//10 27//10
f 36//6 44//6 37//6
f 54//8 27//8 45//8
f 37//9 40//9 36//9
f 55//1 45//1 37//1
f 42//1 33//1 46//1
f 38//10 47//10 56//10
f 47//9 29//18 48//9
f 40//8 51//8 31//8
f 39//10 49//10 57//10
f 49//8 31//8 51//8
f 50//1 51//1 32//1
f 39//13 58//13 50//13
f 41//20 52//20 56//22
f 52//1 33//1 59//1
f 60//10 43//10 41//10
f 59//19 42//14 43//19
f 61//13 53//13 38//16
f 53//1 62//1 35//1
f 35//1 62//1 48//1
f 44//10 54//10 57//10
f 55//6 37//6 44//6
f 54//13 45//13 63//13
f 45//1 55//1 64//1
f 59//1 33//1 42//1
f 47//10 60//10 56//10
f 61//10 38//10 56//10
f 48//9 65//21 47//9
f 49//10 44//10 57//10
f 58//10 39//10 57//10
f 49//13 51//13 44//13
f 51//1 50//1 64//1
f 50//13 58//13 66//13
f 62//22 56//22 52//20
f 56//10 60//10 41//10
f 65//1 52//1 59//1
f 43//19 60//21 59//19
f 53//13 61//13 62//22
f 48//1 62//1 65//1
f 54//10 63//10 57//10
f 55//13 44//13 51//13
f 64//13 63//13 45//13
f 55//1 51//1 64//1
f 60//21 47//9 65//21
f 56//22 62//22 61//13
f 57//13 66//13 58//13
f 50//1 66//1 64//1
f 62//1 52//1 65//1
f 65//21 59//19 60//21
f 63//10 67//10 57//10
f 67//13 63//13 64//13
f 57//6 68//2 66//6
f 64//1 66//1 69//1
f 57//10 67//10 68//10
f 64//8 69//7 67//8
f 70//2 66//6 68//2
f 69//1 66//1 71//1
f 68//10 67//10 72//10
f 73//7 67//8 69//7
f 66//1 70//1 74//1
f 68//2 75//3 70//2
f 71//1 66//1 74//1
f 71//1 76//1 69//1
f 72//10 67//10 77//10
f 72//10 78//10 68//10
f 67//10 73//10 77//10
f 69//7 79//14 73//7
f 74//1 70//1 80//1
f 81//3 70//2 75//3
f 68//10 82//10 75//10
f 71//9 74//9 77//9
f 76//1 83//1 69//1
f 76//15 71//15 83//17
f 72//9 77//9 74//9
f 78//10 82//10 68//10
f 72//4 74//4 78//4
f 77//10 73//10 84//10
f 85//14 73//7 79//14
f 69//1 83//1 79//1
f 80//1 70//1 86//1
f 80//4 82//5 74//4
f 70//1 81//1 86//1
f 75//3 87//11 81//3
f 82//10 88//10 75//10
f 77//15 84//15 71//15
f 83//17 71//15 89//17
f 82//5 78//4 74//4
f 84//10 73//10 89//10
f 73//10 85//10 89//10
f 79//14 90//19 85//14
f 83//1 91//1 79//1
f 86//5 82//5 80//4
f 86//1 81//1 92//1
f 93//11 81//3 87//11
f 75//10 88//10 87//10
f 82//5 86//5 88//12
f 89//17 71//15 84//15
f 83//17 89//17 91//20
f 89//10 85//10 94//10
f 95//19 85//14 90//19
f 79//1 91//1 90//1
f 81//1 93//1 92//1
f 92//12 88//12 86//5
f 87//11 96//18 93//11
f 88//10 97//10 87//10
f 94//20 91//20 89//17
f 85//10 95//10 94//10
f 90//19 98//21 95//19
f 91//1 99//1 90//1
f 92//1 93//1 100//1
f 88//12 92//12 97//16
f 101//18 93//11 96//18
f 96//10 87//10 102//10
f 97//10 102//10 87//10
f 91//20 94//20 99//22
f 94//10 95//10 103//10
f 104//21 95//19 98//21
f 98//1 90//1 105//1
f 99//1 105//1 90//1
f 100//1 93//1 105//1
f 100//16 97//16 92//12
f 93//1 101//1 98//1
f 96//18 106//9 101//18
f 102//10 95//10 96//10
f 97//16 100//16 102//13
f 103//22 99//22 94//20
f 103//10 95//10 102//10
f 95//10 104//10 96//10
f 98//21 107//9 104//21
f 105//1 93//1 98//1
f 99//22 103//22 105//13
f 105//13 102//13 100//16
f 107//1 98//1 101//1
f 107//9 101//18 106//9
f 106//10 96//10 104//10
f 102//13 105//13 103//22
f 106//9 104//21 107//9
