# SSTK version 0.8.0
# 15
mtllib original-15.mtl
o mesh12/mesh12-geometry#mesh12-geometry
v 0.269718 -0.886591 0.383137
v 0.226434 0.340942 0.388967
v 0.226434 -0.886591 0.388967
v 0.269718 0.340942 0.383137
v 0.183022 0.340942 0.393742
v 0.269718 -0.896333 0.383137
v 0.340736 0.340942 0.307809
v 0.226434 0.350685 0.388967
v 0.183022 -0.886591 0.393742
v 0.183022 0.350685 0.393742
v 0.226434 -0.896333 0.388967
v 0.340736 -0.886591 0.307809
v 0.340736 0.350685 0.307809
v 0.269718 0.350685 0.383137
v 0.139506 0.340942 0.397458
v 0.139506 0.350685 0.397458
v -0.252527 -0.896333 0.383137
v 0.340736 -0.896333 0.307809
v 0.340736 -0.886591 0.288055
v 0.340736 0.340942 0.288055
v -0.252527 0.350685 0.383137
v -0.209243 0.350685 0.388967
v 0.139506 -0.886591 0.397458
v 0.183022 -0.896333 0.393742
v -0.165831 0.350685 0.393742
v -0.327855 -0.896333 0.307809
v -0.209243 -0.896333 0.388967
v 0.340736 -0.896333 0.288055
v -0.327855 0.350685 0.307809
v 0.340736 0.350685 0.288055
v 0.095912 0.340942 0.400114
v 0.095912 0.350685 0.400114
v -0.122315 0.350685 0.397458
v -0.327855 -0.886591 0.307809
v -0.252527 -0.886591 0.383137
v -0.327855 -0.896333 0.288055
v -0.327855 0.350685 0.288055
v 0.333929 -0.889526 0.288055
v -0.252527 0.340942 0.383137
v -0.209243 0.340942 0.388967
v -0.165831 0.340942 0.393742
v 0.095912 -0.886591 0.400114
v 0.139506 -0.896333 0.397458
v -0.165831 -0.896333 0.393742
v -0.122315 0.340942 0.397458
v -0.209243 -0.886591 0.388967
v -0.321048 -0.889526 0.288055
v -0.327855 0.340942 0.288055
v 0.333929 0.343878 0.288055
v -0.321048 0.343878 0.288055
v -0.327855 0.340942 0.307809
v 0.052267 0.340942 0.401708
v 0.052267 0.350685 0.401708
v -0.078721 0.350685 0.400114
v -0.078721 0.340942 0.400114
v -0.327855 -0.886591 0.288055
v 0.333929 0.343878 0.281369
v -0.228175 0.261059 0.386417
v -0.122315 -0.886591 0.397458
v 0.052267 -0.886591 0.401708
v 0.095912 -0.896333 0.400114
v -0.035076 0.350685 0.401708
v -0.122315 -0.896333 0.397458
v -0.165831 -0.886591 0.393742
v -0.078721 -0.886591 0.400114
v -0.228175 0.229533 0.386417
v -0.321048 -0.889526 0.281369
v 0.333929 -0.889526 0.281369
v -0.218709 0.261059 0.387692
v 0.008596 0.340942 0.402240
v 0.008596 0.350685 0.402240
v -0.035076 0.340942 0.401708
v -0.035076 -0.886591 0.401708
v -0.218709 0.229533 0.387692
v -0.321048 0.343878 0.281369
v 0.321633 -0.877230 0.281369
v -0.078721 -0.896333 0.400114
v 0.008596 -0.886591 0.402240
v 0.052267 -0.896333 0.401708
v -0.035076 -0.896333 0.401708
v -0.308752 0.331582 0.281369
v -0.308752 -0.877230 0.281369
v 0.321633 0.331582 0.281369
v 0.008596 -0.896333 0.402240
v -0.308752 -0.877230 0.288055
v 0.321633 0.331582 0.288055
v 0.321633 -0.877230 0.288055
v -0.308752 0.331582 0.288055
vn 0.1334810492570524 0 0.9910513657168513
vn 0.12140894774013675 0 0.9926025727392775
vn -0.12140894774013675 0 -0.9926025727392775
vn -0.1334810492570524 0 -0.9910513657168513
vn 0.09721395180658417 0 0.99526350660222
vn -0.09721395180658417 0 -0.99526350660222
vn 0.7276173001502019 0 0.6859832829757084
vn -0.7276173001502019 0 -0.6859832829757084
vn 0.07296098505226564 0 0.9973347956730494
vn -0.07296098505226564 0 -0.9973347956730494
vn 0 -1 0
vn 0 1 0
vn 1 0 0
vn -1 0 0
vn 0.04866500762945717 0 0.9988151565892585
vn -0.04866500762945717 0 -0.9988151565892585
vn -0.7071067811865475 0 0.7071067811865475
vn 0.7071067811865475 0 -0.7071067811865475
vn -0.12140894774013675 0 0.9926025727392775
vn -0.1334810492570524 0 0.9910513657168513
vn 0.1334810492570524 0 -0.9910513657168513
vn 0.12140894774013675 0 -0.9926025727392775
vn 0 0 -1
vn 0 0 1
vn -0.09721395180658417 0 0.99526350660222
vn 0.09721395180658417 0 -0.99526350660222
vn -0.07296098505226564 0 0.9973347956730494
vn 0.07296098505226564 0 -0.9973347956730494
vn 0.024338994225124033 0 0.9997037628018158
vn -0.024338994225124033 0 -0.9997037628018158
vn -0.04866500762945717 0 0.9988151565892585
vn 0.04866500762945717 0 -0.9988151565892585
vn -0.024338994225124033 0 0.9997037628018158
vn 0.024338994225124033 0 -0.9997037628018158
usemtl material_0_0
f 1//1 2//2 3//2
f 2//2 1//1 4//1
f 3//3 2//3 1//4
f 4//4 1//4 2//3
f 5//5 3//2 2//2
f 2//3 3//3 5//6
f 3//2 6//1 1//1
f 1//4 6//4 3//3
f 1//7 7//7 4//7
f 4//8 7//8 1//8
f 4//1 8//2 2//2
f 2//3 8//3 4//4
f 3//2 5//5 9//5
f 9//6 5//6 3//3
f 2//2 10//5 5//5
f 5//6 10//6 2//3
f 6//1 3//2 11//2
f 11//3 3//3 6//4
f 6//7 12//7 1//7
f 1//8 12//8 6//8
f 7//7 1//7 12//7
f 12//8 1//8 7//8
f 13//7 4//7 7//7
f 7//8 4//8 13//8
f 8//2 4//1 14//1
f 14//4 4//4 8//3
f 10//5 2//2 8//2
f 8//3 2//3 10//6
f 15//9 9//5 5//5
f 5//6 9//6 15//10
f 9//5 11//2 3//2
f 3//3 11//3 9//6
f 16//9 5//5 10//5
f 10//6 5//6 16//10
f 17//11 6//11 11//11
f 11//12 6//12 17//12
f 12//7 6//7 18//7
f 18//8 6//8 12//8
f 19//13 7//13 12//13
f 12//14 7//14 19//14
f 4//7 13//7 14//7
f 14//8 13//8 4//8
f 20//13 13//13 7//13
f 7//14 13//14 20//14
f 21//11 14//11 8//11
f 8//12 14//12 21//12
f 22//11 8//11 10//11
f 10//12 8//12 22//12
f 9//5 15//9 23//9
f 23//10 15//10 9//6
f 5//5 16//9 15//9
f 15//10 16//10 5//6
f 11//2 9//5 24//5
f 24//6 9//6 11//3
f 25//11 10//11 16//11
f 16//12 10//12 25//12
f 26//11 6//11 17//11
f 17//12 6//12 26//12
f 17//11 11//11 27//11
f 27//12 11//12 17//12
f 26//11 18//11 6//11
f 6//12 18//12 26//12
f 28//13 12//13 18//13
f 18//14 12//14 28//14
f 7//13 19//13 20//13
f 20//14 19//14 7//14
f 12//13 28//13 19//13
f 19//14 28//14 12//14
f 29//11 13//11 14//11
f 14//12 13//12 29//12
f 13//13 20//13 30//13
f 30//14 20//14 13//14
f 29//11 14//11 21//11
f 21//12 14//12 29//12
f 21//11 8//11 22//11
f 22//12 8//12 21//12
f 22//11 10//11 25//11
f 25//12 10//12 22//12
f 31//15 23//9 15//9
f 15//10 23//10 31//16
f 23//9 24//5 9//5
f 9//6 24//6 23//10
f 32//15 15//9 16//9
f 16//10 15//10 32//16
f 27//11 11//11 24//11
f 24//12 11//12 27//12
f 25//11 16//11 33//11
f 33//12 16//12 25//12
f 17//17 34//17 26//17
f 26//18 34//18 17//18
f 27//19 35//20 17//20
f 17//21 35//21 27//22
f 36//11 18//11 26//11
f 26//12 18//12 36//12
f 18//11 36//11 28//11
f 28//12 36//12 18//12
f 28//23 20//23 19//23
f 19//24 20//24 28//24
f 37//11 13//11 29//11
f 29//12 13//12 37//12
f 20//23 38//23 30//23
f 30//24 38//24 20//24
f 13//11 37//11 30//11
f 30//12 37//12 13//12
f 29//17 39//17 21//17
f 21//18 39//18 29//18
f 21//20 40//19 22//19
f 22//22 40//22 21//21
f 22//19 41//25 25//25
f 25//26 41//26 22//22
f 23//9 31//15 42//15
f 42//16 31//16 23//10
f 15//9 32//15 31//15
f 31//16 32//16 15//10
f 24//5 23//9 43//9
f 43//10 23//10 24//6
f 33//11 16//11 32//11
f 32//12 16//12 33//12
f 27//11 24//11 44//11
f 44//12 24//12 27//12
f 25//25 45//27 33//27
f 33//28 45//28 25//26
f 34//17 17//17 35//17
f 35//18 17//18 34//18
f 34//14 36//14 26//14
f 26//13 36//13 34//13
f 35//20 27//19 46//19
f 46//22 27//22 35//21
f 36//23 47//23 28//23
f 28//24 47//24 36//24
f 28//23 38//23 20//23
f 20//24 38//24 28//24
f 48//14 29//14 37//14
f 37//13 29//13 48//13
f 49//23 30//23 38//23
f 38//24 30//24 49//24
f 50//23 37//23 30//23
f 30//24 37//24 50//24
f 39//17 29//17 51//17
f 51//18 29//18 39//18
f 40//19 21//20 39//20
f 39//21 21//21 40//22
f 41//25 22//19 40//19
f 40//22 22//22 41//26
f 45//27 25//25 41//25
f 41//26 25//26 45//28
f 52//29 42//15 31//15
f 31//16 42//16 52//30
f 42//15 43//9 23//9
f 23//10 43//10 42//16
f 53//29 31//15 32//15
f 32//16 31//16 53//30
f 44//11 24//11 43//11
f 43//12 24//12 44//12
f 33//11 32//11 54//11
f 54//12 32//12 33//12
f 44//25 46//19 27//19
f 27//22 46//22 44//26
f 55//31 33//27 45//27
f 45//28 33//28 55//32
f 35//17 51//17 34//17
f 34//18 51//18 35//18
f 36//14 34//14 56//14
f 56//13 34//13 36//13
f 46//19 39//20 35//20
f 35//21 39//21 46//22
f 47//23 36//23 50//23
f 50//24 36//24 47//24
f 28//23 47//23 38//23
f 38//24 47//24 28//24
f 29//14 48//14 51//14
f 51//13 48//13 29//13
f 37//23 50//23 48//23
f 48//24 50//24 37//24
f 50//23 30//23 49//23
f 49//24 30//24 50//24
f 49//14 57//14 38//14
f 51//17 35//17 39//17
f 39//18 35//18 51//18
f 39//20 58//20 40//19
f 40//22 58//21 39//21
f 46//19 41//25 40//19
f 40//22 41//26 46//22
f 41//25 59//27 45//27
f 45//28 59//28 41//26
f 42//15 52//29 60//29
f 60//30 52//30 42//16
f 31//15 53//29 52//29
f 52//30 53//30 31//16
f 43//9 42//15 61//15
f 61//16 42//16 43//10
f 62//11 32//11 53//11
f 53//12 32//12 62//12
f 44//11 43//11 63//11
f 63//12 43//12 44//12
f 54//11 32//11 62//11
f 62//12 32//12 54//12
f 33//27 55//31 54//31
f 54//32 55//32 33//28
f 46//19 44//25 64//25
f 64//26 44//26 46//22
f 45//27 65//31 55//31
f 55//32 65//32 45//28
f 51//14 56//14 34//14
f 34//13 56//13 51//13
f 56//23 50//23 36//23
f 36//24 50//24 56//24
f 39//20 46//19 66//20
f 66//21 46//22 39//21
f 47//13 67//13 50//13
f 47//12 38//12 67//12
f 56//14 51//14 48//14
f 48//13 51//13 56//13
f 48//23 50//23 56//23
f 56//24 50//24 48//24
f 49//11 50//11 57//11
f 68//14 38//14 57//14
f 58//20 39//20 66//20
f 66//21 39//21 58//21
f 40//19 58//20 69//20
f 69//21 58//21 40//22
f 41//25 46//19 64//25
f 64//26 46//22 41//26
f 69//20 46//19 40//19
f 40//22 46//22 69//21
f 59//27 41//25 64//25
f 64//26 41//26 59//28
f 65//31 45//27 59//27
f 59//28 45//28 65//32
f 70//24 60//29 52//29
f 52//30 60//30 70//23
f 60//29 61//15 42//15
f 42//16 61//16 60//30
f 71//24 52//29 53//29
f 53//30 52//30 71//23
f 63//11 43//11 61//11
f 61//12 43//12 63//12
f 62//11 53//11 71//11
f 71//12 53//12 62//12
f 63//27 64//25 44//25
f 44//26 64//26 63//28
f 54//31 72//33 62//33
f 62//34 72//34 54//32
f 72//33 54//31 55//31
f 55//32 54//32 72//34
f 73//33 55//31 65//31
f 65//32 55//32 73//34
f 66//20 46//19 74//20
f 74//21 46//22 66//21
f 75//13 50//13 67//13
f 68//12 67//12 38//12
f 75//11 57//11 50//11
f 57//24 76//24 68//24
f 74//20 46//19 69//20
f 69//21 46//22 74//21
f 64//25 63//27 59//27
f 59//28 63//28 64//26
f 59//27 77//31 65//31
f 65//32 77//32 59//28
f 60//29 70//24 78//24
f 78//23 70//23 60//30
f 52//29 71//24 70//24
f 70//23 71//23 52//30
f 61//15 60//29 79//29
f 79//30 60//30 61//16
f 63//11 61//11 77//11
f 77//12 61//12 63//12
f 62//33 70//24 71//24
f 71//23 70//23 62//34
f 70//24 62//33 72//33
f 72//34 62//34 70//23
f 55//31 73//33 72//33
f 72//34 73//34 55//32
f 65//31 80//33 73//33
f 73//34 80//34 65//32
f 67//24 81//24 75//24
f 68//24 82//24 67//24
f 57//24 75//24 81//24
f 76//24 82//24 68//24
f 76//24 57//24 83//24
f 77//31 59//27 63//27
f 63//28 59//28 77//32
f 80//33 65//31 77//31
f 77//32 65//32 80//34
f 72//33 78//24 70//24
f 70//23 78//23 72//34
f 78//24 79//29 60//29
f 60//30 79//30 78//23
f 80//11 61//11 79//11
f 79//12 61//12 80//12
f 77//11 61//11 80//11
f 80//12 61//12 77//12
f 78//24 72//33 73//33
f 73//34 72//34 78//23
f 84//24 73//33 80//33
f 80//34 73//34 84//23
f 81//24 67//24 82//24
f 83//24 57//24 81//24
f 82//11 76//11 85//11
f 83//13 86//13 76//13
f 79//29 78//24 84//24
f 84//23 78//23 79//30
f 80//11 79//11 84//11
f 84//12 79//12 80//12
f 73//33 84//24 78//24
f 78//23 84//23 73//34
f 82//14 85//14 81//14
f 83//12 81//12 86//12
f 87//11 85//11 76//11
f 87//13 76//13 86//13
f 88//14 81//14 85//14
f 88//12 86//12 81//12
usemtl material_1_0
f 38//13 57//13 49//13
f 50//14 67//14 47//14
f 67//11 38//11 47//11
f 57//12 50//12 49//12
f 57//13 38//13 68//13
f 67//14 50//14 75//14
f 38//11 67//11 68//11
f 50//12 57//12 75//12
f 68//23 76//23 57//23
f 75//23 81//23 67//23
f 67//23 82//23 68//23
f 81//23 75//23 57//23
f 68//23 82//23 76//23
f 83//23 57//23 76//23
f 82//23 67//23 81//23
f 81//23 57//23 83//23
f 85//12 76//12 82//12
f 76//14 86//14 83//14
f 81//13 85//13 82//13
f 86//11 81//11 83//11
f 76//12 85//12 87//12
f 86//14 76//14 87//14
f 85//13 81//13 88//13
f 81//11 86//11 88//11
usemtl material_2_0
f 85//23 86//23 87//23
f 87//24 86//24 85//24
f 86//23 85//23 88//23
f 88//24 85//24 86//24
