# SSTK version 0.8.0
# 10
mtllib original-10.mtl
o mesh8/mesh8-geometry#mesh8-geometry
v -0.302234 0.292233 0.333430
v -0.297306 0.291923 0.338358
v -0.301485 0.291612 0.334179
v -0.298991 0.292098 0.336673
v -0.294510 0.291923 0.341154
v -0.303616 0.292233 0.334812
v -0.299595 0.292317 0.336069
v -0.298688 0.291923 0.339740
v -0.294510 0.287380 0.341154
v -0.295892 0.291923 0.342536
v -0.302867 0.291612 0.335561
v -0.302706 0.292873 0.332958
v -0.300373 0.292098 0.338055
v -0.302852 0.291612 0.332813
v -0.295892 0.287380 0.342536
v -0.304234 0.291612 0.334194
v -0.304088 0.292873 0.334340
v -0.300040 0.292623 0.335625
v -0.300977 0.292317 0.337451
v -0.302852 0.287380 0.332813
v -0.304234 0.287380 0.334194
v -0.302957 0.293599 0.332707
v -0.300429 0.293212 0.335236
v -0.301422 0.292623 0.337006
v -0.304339 0.293599 0.334089
v -0.301810 0.293212 0.336618
v -0.303040 0.294478 0.332624
v -0.300558 0.294001 0.335106
v -0.301940 0.294001 0.336488
v -0.304422 0.294478 0.334006
v -0.302930 0.295525 0.332734
v -0.300322 0.295267 0.335342
v -0.301704 0.295267 0.336724
v -0.304312 0.295525 0.334116
v -0.302600 0.296667 0.333064
v -0.303982 0.296667 0.334446
vn 0.7071067811865477 0 -0.7071067811865474
vn -0.35743327129657854 -0.8628342327124331 -0.3574332712965784
vn -0.4262734431867473 -0.7978608295106545 -0.42627344318674715
vn 0.11405209199575111 0.9869063991193824 0.11405209199575084
vn 0.02590766612425564 0.9993285674251428 0.025907666124255335
vn 0 1 0
vn -0.5713027123222522 -0.5892592144264491 -0.5713027123222522
vn 0.24369510066957656 0.9387360629161372 0.2436951006695764
vn 0.7071067811865474 0 0.7071067811865477
vn -0.7071067811865477 0 0.7071067811865474
vn 0 -1 0
vn -0.6768546275185011 -0.2893710877292023 -0.6768546275185013
vn 0.4201584408395536 0.8043219313077015 0.4201584408395535
vn -0.7071067811865474 0 -0.7071067811865477
vn 0.623968981579798 0.47045235683599207 0.623968981579798
vn -0.7070895063256895 0.006989999154880762 -0.7070895063256897
vn 0.7070325348911065 -0.014491004482514986 0.7070325348911067
vn -0.6819118137097292 0.2645610641160466 -0.6819118137097295
vn 0.6838250227812882 -0.2544929791494073 0.6838250227812885
vn -0.654536559516723 0.3783699043423278 -0.6545365595167233
vn 0.2817783154546527 0.9171706285523303 0.2817783154546526
vn 0.4262734431867473 0.7978608295106545 0.42627344318674715
vn 0.35743327129657854 0.8628342327124331 0.3574332712965784
vn -0.02590766612425564 -0.9993285674251428 -0.025907666124255335
vn -0.11405209199575111 -0.9869063991193824 -0.11405209199575084
vn 0.5713027123222522 0.5892592144264491 0.5713027123222522
vn -0.24369510066957656 -0.9387360629161372 -0.2436951006695764
vn 0.6768546275185011 0.2893710877292023 0.6768546275185013
vn -0.4201584408395536 -0.8043219313077015 -0.4201584408395535
vn -0.623968981579798 -0.47045235683599207 -0.623968981579798
vn 0.7070895063256895 -0.006989999154880762 0.7070895063256897
vn -0.7070325348911065 0.014491004482514986 -0.7070325348911067
vn 0.6819118137097292 -0.2645610641160466 0.6819118137097295
vn -0.6838250227812882 0.2544929791494073 -0.6838250227812885
vn 0.654536559516723 -0.3783699043423278 0.6545365595167233
vn -0.2817783154546527 -0.9171706285523303 -0.2817783154546526
usemtl material_0_0
f 1//1 2//1 3//1
f 2//1 1//1 4//1
f 5//1 3//1 2//1
f 3//2 6//3 1//3
f 4//1 1//1 7//1
f 4//4 8//5 2//5
f 9//1 3//1 5//1
f 2//5 10//6 5//6
f 6//3 3//2 11//2
f 6//3 12//7 1//3
f 7//1 1//1 12//1
f 7//8 13//4 4//4
f 8//5 4//4 13//4
f 10//6 2//5 8//5
f 9//1 14//1 3//1
f 5//9 15//9 9//9
f 15//9 5//9 10//9
f 3//6 16//6 11//6
f 8//10 6//10 11//10
f 12//7 6//3 17//7
f 7//1 12//1 18//1
f 13//4 7//8 19//8
f 6//10 8//10 13//10
f 11//10 10//10 8//10
f 14//1 9//1 20//1
f 16//6 3//6 14//6
f 21//11 9//11 15//11
f 11//10 15//10 10//10
f 16//10 15//10 11//10
f 6//10 19//10 17//10
f 17//7 22//12 12//7
f 18//1 12//1 23//1
f 18//13 19//8 7//8
f 6//10 13//10 19//10
f 9//11 21//11 20//11
f 20//14 16//14 14//14
f 15//10 16//10 21//10
f 17//10 19//10 24//10
f 22//12 17//7 25//12
f 23//1 12//1 22//1
f 26//15 18//13 23//15
f 19//8 18//13 24//13
f 16//14 20//14 21//14
f 17//10 24//10 26//10
f 17//10 26//10 25//10
f 25//12 27//16 22//12
f 23//1 22//1 28//1
f 18//13 26//15 24//13
f 28//17 26//15 23//15
f 25//10 26//10 29//10
f 27//16 25//12 30//16
f 28//1 22//1 27//1
f 26//15 28//17 29//17
f 25//10 29//10 30//10
f 30//16 31//18 27//16
f 28//1 27//1 32//1
f 28//17 33//19 29//17
f 30//10 29//10 33//10
f 31//18 30//16 34//18
f 32//1 27//1 31//1
f 33//19 28//17 32//19
f 30//10 33//10 34//10
f 34//18 35//20 31//18
f 32//1 31//1 35//1
f 35//21 33//21 32//21
f 34//10 33//10 36//10
f 35//20 34//18 36//20
f 33//21 35//21 36//21
usemtl material_1_0
f 3//10 2//10 1//10
f 4//10 1//10 2//10
f 2//10 3//10 5//10
f 1//22 6//22 3//23
f 7//10 1//10 4//10
f 2//24 8//24 4//25
f 5//10 3//10 9//10
f 5//11 10//11 2//24
f 11//23 3//23 6//22
f 1//22 12//26 6//22
f 12//10 1//10 7//10
f 4//25 13//25 7//27
f 13//25 4//25 8//24
f 8//24 2//24 10//11
f 3//10 14//10 9//10
f 9//14 15//14 5//14
f 10//14 5//14 15//14
f 11//11 16//11 3//11
f 11//1 6//1 8//1
f 17//26 6//22 12//26
f 18//10 12//10 7//10
f 19//27 7//27 13//25
f 13//1 8//1 6//1
f 8//1 10//1 11//1
f 20//10 9//10 14//10
f 14//11 3//11 16//11
f 15//6 9//6 21//6
f 10//1 15//1 11//1
f 11//1 15//1 16//1
f 17//1 19//1 6//1
f 12//26 22//28 17//26
f 23//10 12//10 18//10
f 7//27 19//27 18//29
f 19//1 13//1 6//1
f 20//6 21//6 9//6
f 14//9 16//9 20//9
f 21//1 16//1 15//1
f 24//1 19//1 17//1
f 25//28 17//26 22//28
f 22//10 12//10 23//10
f 23//30 18//29 26//30
f 24//29 18//29 19//27
f 21//9 20//9 16//9
f 26//1 24//1 17//1
f 25//1 26//1 17//1
f 22//28 27//31 25//28
f 28//10 22//10 23//10
f 24//29 26//30 18//29
f 23//30 26//30 28//32
f 29//1 26//1 25//1
f 30//31 25//28 27//31
f 27//10 22//10 28//10
f 29//32 28//32 26//30
f 30//1 29//1 25//1
f 27//31 31//33 30//31
f 32//10 27//10 28//10
f 29//32 33//34 28//32
f 33//1 29//1 30//1
f 34//33 30//31 31//33
f 31//10 27//10 32//10
f 32//34 28//32 33//34
f 34//1 33//1 30//1
f 31//33 35//35 34//33
f 35//10 31//10 32//10
f 32//36 33//36 35//36
f 36//1 33//1 34//1
f 36//35 34//33 35//35
f 36//36 35//36 33//36
