# SSTK version 0.8.0
# 12
mtllib original-12.mtl
o mesh10/mesh10-geometry#mesh10-geometry
v -0.302738 0.315922 0.332926
v -0.299419 0.316651 0.336245
v -0.297888 0.316639 0.337777
v -0.302965 0.317229 0.332700
v -0.297888 0.325704 0.337777
v -0.294438 0.316745 0.341226
v -0.304347 0.317229 0.334081
v -0.300073 0.316837 0.335591
v -0.299419 0.321105 0.336245
v -0.299269 0.325704 0.339159
v -0.294789 0.315151 0.340876
v -0.297216 0.316848 0.338448
v -0.304120 0.315922 0.334308
v -0.303040 0.318706 0.332624
v -0.300542 0.317173 0.335122
v -0.301455 0.316837 0.336973
v -0.300801 0.316651 0.337627
v -0.302735 0.321905 0.332929
v -0.299269 0.316639 0.339159
v -0.298249 0.325704 0.337415
v -0.302360 0.314783 0.333304
v -0.296171 0.315151 0.342257
v -0.298598 0.316848 0.339830
v -0.294321 0.318839 0.341343
v -0.303742 0.314783 0.334686
v -0.304422 0.318706 0.334006
v -0.300996 0.317925 0.334668
v -0.300801 0.321105 0.337627
v -0.302905 0.320972 0.332760
v -0.302498 0.322705 0.333166
v -0.299631 0.325704 0.338797
v -0.299743 0.325512 0.335921
v -0.295394 0.313922 0.340271
v -0.295820 0.316745 0.342608
v -0.298123 0.317228 0.340305
v -0.296741 0.317228 0.338924
v -0.295703 0.318839 0.342725
v -0.302378 0.317925 0.336050
v -0.304287 0.320972 0.334141
v -0.301147 0.318895 0.334517
v -0.301924 0.317173 0.336504
v -0.301596 0.320862 0.336832
v -0.300214 0.320862 0.335450
v -0.304117 0.321905 0.334311
v -0.301835 0.323996 0.333830
v -0.301125 0.325512 0.337303
v -0.300374 0.325273 0.335290
v -0.301831 0.313812 0.333834
v -0.303212 0.313812 0.335216
v -0.296775 0.313922 0.341653
v -0.296334 0.317984 0.339330
v -0.294458 0.321225 0.341206
v -0.302529 0.318895 0.335899
v -0.300747 0.320400 0.334918
v -0.303880 0.322705 0.334548
v -0.300927 0.324938 0.334737
v -0.301756 0.325273 0.336672
v -0.301179 0.313037 0.334485
v -0.297655 0.312924 0.340773
v -0.297716 0.317984 0.340712
v -0.296199 0.318939 0.339466
v -0.295840 0.321225 0.342588
v -0.302429 0.319737 0.335999
v -0.301047 0.319737 0.334617
v -0.302128 0.320400 0.336299
v -0.303216 0.323996 0.335212
v -0.302309 0.324938 0.336119
v -0.296273 0.312924 0.339391
v -0.302561 0.313037 0.335867
v -0.297581 0.318939 0.340847
v -0.296010 0.322182 0.342418
v -0.296258 0.319589 0.339407
v -0.296804 0.312537 0.338860
v -0.298186 0.312537 0.340242
v -0.294628 0.322182 0.341036
v -0.298052 0.325448 0.340376
v -0.297639 0.319589 0.340789
v -0.296434 0.320205 0.339230
v -0.300434 0.312484 0.335230
v -0.301816 0.312484 0.336612
v -0.296670 0.325448 0.338994
v -0.296249 0.322982 0.342179
v -0.298342 0.320994 0.340086
v -0.297816 0.320205 0.340612
v -0.296961 0.320994 0.338704
v -0.297380 0.312261 0.338284
v -0.298762 0.312261 0.339666
v -0.294867 0.322982 0.340797
v -0.296567 0.323678 0.341861
v -0.299596 0.312151 0.336068
v -0.300978 0.312151 0.337450
v -0.295185 0.323678 0.340480
v -0.295591 0.324321 0.340073
v -0.296973 0.324321 0.341455
v -0.298665 0.312041 0.336999
v -0.300047 0.312041 0.338381
vn 0.7071067811865477 0 -0.7071067811865474
vn -0.6667010017181674 -0.33319596128402296 -0.6667010017181676
vn -0.6984743702207019 -0.15577903674624244 -0.6984743702207022
vn 0.7071067811865474 0 0.7071067811865477
vn -0.7070939170179243 0.006032000704318453 -0.7070939170179246
vn 0.23154194390396074 0.9448685921472626 0.23154194390396055
vn 0.13947530537065253 0.9803536496507402 0.13947530537065225
vn -0.7071067811865474 0 -0.7071067811865477
vn -0.03195839264105398 0.9989781390398892 -0.03195839264105431
vn 0 1 0
vn 0.6943655043286391 -0.18897908031543928 0.6943655043286393
vn 0.635234314676303 -0.43926612766687906 0.6352343146763033
vn -0.15146789494759966 0.9767880801894984 -0.15146789494760002
vn -0.252735450042877 0.9339430306947253 -0.25273545004287745
vn -0.6035846613737641 -0.5209329257290587 -0.6035846613737641
vn -0.7071067811865477 0 0.7071067811865474
vn 0.4373184900297534 0.7858149124038006 0.43731849002975337
vn 0.5167486621680041 -0.6825991798230904 0.5167486621680044
vn -0.4650327193613866 0.7533187504945749 -0.46503271936138707
vn 0.7071064339685209 0.0009909998200428004 0.7071064339685211
vn -0.6971734439995932 0.1670280753750443 -0.6971734439995935
vn 0.6331273669360884 0.4453082914938271 0.6331273669360885
vn 0.263499121981028 -0.9279743667960094 0.2634991219810284
vn 0.14932462083789408 -0.9774478580585454 0.14932462083789444
vn -0.6702843096877065 0.31849315278817064 -0.6702843096877068
vn -0.6161633889724377 0.49059693861662085 -0.6161633889724382
vn -0.12405971128554331 0.9844888907811481 -0.12405971128554368
vn -0.5104919331148945 -0.6919508453996108 -0.5104919331148945
vn 0.697642737141288 0.1630620208019726 0.6976427371412882
vn 0.706879883675368 0.025331010840387615 0.7068798836753684
vn -0.5011208419884805 0.7055181099373087 -0.501120841988481
vn -0.23153560597134193 0.9448716983458478 -0.2315356059713423
vn 0.3849842995695533 -0.8387932869127416 0.3849842995695537
vn -0.6444233854965978 0.41162725911946835 -0.6444233854965983
vn 0.659654618865279 -0.3601549216926051 0.6596546188652793
vn 0.49511385952123615 -0.7139499507808447 0.4951138595212366
vn -0.35070935181921403 0.8683351317855872 -0.3507093518192144
vn -0.39442420850453286 -0.8299753535443966 -0.39442420850453275
vn -0.7066682048898478 0.03521500242112686 -0.706668204889848
vn 0.6705254934020655 0.3174761808322524 0.6705254934020657
vn 0.27604022699831054 -0.9206538905351144 0.27604022699831093
vn -0.6840027286104421 -0.25353606155129 -0.6840027286104422
vn -0.26139465764957015 -0.9291639607219644 -0.26139465764957
vn 0.6251835826707356 0.46721619826154015 0.6251835826707357
vn -0.5950126418350737 -0.5402961337201041 -0.5950126418350737
vn 0.1569791056253803 -0.9750462146965708 0.15697910562538064
vn -0.7041158431569983 0.09187904456740295 -0.7041158431569985
vn -0.5142765177082937 -0.6863230483290372 -0.5142765177082937
vn -0.12561390158936142 -0.9840946577718 -0.12561390158936114
vn 0.5624271303203298 0.6060952451218187 0.5624271303203298
vn 0.42019586459432406 0.8042828300763711 0.42019586459432395
vn 0.4762297694139466 0.7391957883050191 0.47622976941394657
vn 0.013077935256073536 -0.9998289529808966 0.013077935256073857
vn 0.6984743702207019 0.15577903674624244 0.6984743702207022
vn 0.6667010017181674 0.33319596128402296 0.6667010017181676
vn 0.7070939170179243 -0.006032000704318453 0.7070939170179246
vn -0.23154194390396074 -0.9448685921472626 -0.23154194390396055
vn -0.13947530537065253 -0.9803536496507402 -0.13947530537065225
vn 0 -1 0
vn 0.03195839264105398 -0.9989781390398892 0.03195839264105431
vn -0.635234314676303 0.43926612766687906 -0.6352343146763033
vn -0.6943655043286391 0.18897908031543928 -0.6943655043286393
vn 0.252735450042877 -0.9339430306947253 0.25273545004287745
vn 0.15146789494759966 -0.9767880801894984 0.15146789494760002
vn 0.6035846613737641 0.5209329257290587 0.6035846613737641
vn -0.4373184900297534 -0.7858149124038006 -0.43731849002975337
vn -0.5167486621680041 0.6825991798230904 -0.5167486621680044
vn 0.4650327193613866 -0.7533187504945749 0.46503271936138707
vn -0.7071064339685209 -0.0009909998200428004 -0.7071064339685211
vn 0.6971734439995932 -0.1670280753750443 0.6971734439995935
vn -0.6331273669360884 -0.4453082914938271 -0.6331273669360885
vn -0.14932462083789408 0.9774478580585454 -0.14932462083789444
vn -0.263499121981028 0.9279743667960094 -0.2634991219810284
vn 0.6702843096877065 -0.31849315278817064 0.6702843096877068
vn 0.6161633889724377 -0.49059693861662085 0.6161633889724382
vn 0.12405971128554331 -0.9844888907811481 0.12405971128554368
vn 0.5104919331148945 0.6919508453996108 0.5104919331148945
vn -0.697642737141288 -0.1630620208019726 -0.6976427371412882
vn -0.706879883675368 -0.025331010840387615 -0.7068798836753684
vn 0.5011208419884805 -0.7055181099373087 0.501120841988481
vn 0.23153560597134193 -0.9448716983458478 0.2315356059713423
vn -0.3849842995695533 0.8387932869127416 -0.3849842995695537
vn 0.6444233854965978 -0.41162725911946835 0.6444233854965983
vn -0.659654618865279 0.3601549216926051 -0.6596546188652793
vn -0.49511385952123615 0.7139499507808447 -0.4951138595212366
vn 0.35070935181921403 -0.8683351317855872 0.3507093518192144
vn 0.39442420850453286 0.8299753535443966 0.39442420850453275
vn 0.7066682048898478 -0.03521500242112686 0.706668204889848
vn -0.6705254934020655 -0.3174761808322524 -0.6705254934020657
vn -0.27604022699831054 0.9206538905351144 -0.27604022699831093
vn 0.6840027286104421 0.25353606155129 0.6840027286104422
vn 0.26139465764957015 0.9291639607219644 0.26139465764957
vn -0.6251835826707356 -0.46721619826154015 -0.6251835826707357
vn 0.5950126418350737 0.5402961337201041 0.5950126418350737
vn -0.1569791056253803 0.9750462146965708 -0.15697910562538064
vn 0.7041158431569983 -0.09187904456740295 0.7041158431569985
vn 0.5142765177082937 0.6863230483290372 0.5142765177082937
vn 0.12561390158936142 0.9840946577718 0.12561390158936114
vn -0.5624271303203298 -0.6060952451218187 -0.5624271303203298
vn -0.42019586459432406 -0.8042828300763711 -0.42019586459432395
vn -0.4762297694139466 -0.7391957883050191 -0.47622976941394657
vn -0.013077935256073536 0.9998289529808966 -0.013077935256073857
usemtl material_0_0
f 1//1 2//1 3//1
f 2//1 1//1 4//1
f 2//1 5//1 3//1
f 6//1 1//1 3//1
f 1//2 7//3 4//3
f 2//1 4//1 8//1
f 5//1 2//1 9//1
f 10//4 3//4 5//4
f 11//1 1//1 6//1
f 6//1 3//1 12//1
f 7//3 1//2 13//2
f 7//3 14//5 4//3
f 8//1 4//1 15//1
f 16//6 2//7 8//6
f 17//8 9//8 2//8
f 5//1 9//1 18//1
f 3//4 10//4 19//4
f 20//9 10//10 5//10
f 11//1 21//1 1//1
f 6//11 22//12 11//12
f 3//13 23//14 12//14
f 6//1 12//1 24//1
f 1//2 25//15 13//2
f 13//16 17//16 7//16
f 14//5 7//3 26//5
f 27//1 4//1 14//1
f 15//1 4//1 27//1
f 15//17 16//6 8//6
f 2//7 16//6 17//7
f 9//8 17//8 28//8
f 9//1 29//1 18//1
f 5//1 18//1 30//1
f 10//16 17//16 19//16
f 23//14 3//13 19//13
f 10//10 20//9 31//9
f 5//1 32//1 20//1
f 33//1 21//1 11//1
f 25//15 1//2 21//15
f 22//12 6//11 34//11
f 22//12 33//18 11//12
f 35//19 12//14 23//14
f 24//1 12//1 36//1
f 37//20 6//11 24//20
f 25//16 22//16 13//16
f 17//16 13//16 19//16
f 7//16 17//16 16//16
f 7//16 38//16 26//16
f 39//21 14//5 26//5
f 27//1 14//1 40//1
f 38//22 15//17 27//22
f 16//6 15//17 41//17
f 17//16 10//16 28//16
f 42//23 9//24 28//24
f 43//1 29//1 9//1
f 39//21 18//25 29//21
f 44//25 30//26 18//25
f 5//1 30//1 45//1
f 19//16 34//16 23//16
f 20//9 46//27 31//9
f 46//16 10//16 31//16
f 5//1 47//1 32//1
f 46//27 20//9 32//27
f 33//1 48//1 21//1
f 21//15 49//28 25//15
f 6//11 37//20 34//11
f 13//16 22//16 34//16
f 33//18 22//12 50//18
f 12//14 35//19 36//19
f 23//16 37//16 35//16
f 24//1 36//1 51//1
f 52//29 37//20 24//20
f 25//16 50//16 22//16
f 13//16 34//16 19//16
f 7//16 16//16 41//16
f 7//16 41//16 38//16
f 26//16 38//16 53//16
f 14//5 39//21 29//21
f 26//16 53//16 39//16
f 40//1 14//1 29//1
f 53//30 27//22 40//30
f 15//17 38//22 41//17
f 27//22 53//30 38//22
f 28//16 10//16 44//16
f 9//24 42//23 43//23
f 39//16 42//16 28//16
f 54//1 29//1 43//1
f 18//25 39//21 44//25
f 30//26 44//25 55//26
f 55//26 45//31 30//26
f 5//1 45//1 56//1
f 23//16 34//16 37//16
f 57//16 10//16 46//16
f 5//1 56//1 47//1
f 47//32 46//27 32//27
f 33//1 58//1 48//1
f 49//28 21//15 48//28
f 49//16 50//16 25//16
f 59//33 33//18 50//18
f 60//34 36//19 35//19
f 35//16 37//16 60//16
f 36//19 60//34 51//34
f 24//1 51//1 61//1
f 37//20 52//29 62//29
f 24//1 61//1 52//1
f 39//16 53//16 63//16
f 40//1 29//1 64//1
f 40//30 63//35 53//30
f 44//16 10//16 55//16
f 39//16 28//16 44//16
f 65//36 43//23 42//23
f 39//16 65//16 42//16
f 64//1 29//1 54//1
f 43//23 65//36 54//36
f 45//31 55//26 66//31
f 45//31 67//37 56//37
f 67//16 10//16 57//16
f 46//27 47//32 57//32
f 67//37 47//32 56//37
f 68//1 58//1 33//1
f 58//38 49//28 48//28
f 69//16 50//16 49//16
f 33//18 59//33 68//33
f 69//16 59//16 50//16
f 60//16 37//16 70//16
f 60//34 61//39 51//34
f 52//29 71//40 62//29
f 70//16 37//16 62//16
f 52//1 61//1 72//1
f 39//16 63//16 65//16
f 63//35 40//30 64//35
f 55//16 10//16 66//16
f 65//36 64//35 54//36
f 67//37 45//31 66//31
f 66//16 10//16 67//16
f 47//32 67//37 57//32
f 73//1 58//1 68//1
f 49//28 58//38 69//38
f 74//41 68//33 59//33
f 69//16 74//16 59//16
f 61//39 60//34 70//39
f 71//40 52//29 75//40
f 76//16 62//16 71//16
f 70//16 62//16 77//16
f 70//39 72//42 61//39
f 52//1 72//1 78//1
f 64//35 65//36 63//35
f 73//1 79//1 58//1
f 68//33 74//41 73//41
f 79//43 69//38 58//38
f 80//16 74//16 69//16
f 52//1 81//1 75//1
f 75//40 82//44 71//40
f 83//16 62//16 76//16
f 76//16 71//16 82//16
f 77//16 62//16 84//16
f 72//42 70//39 77//42
f 77//42 78//45 72//42
f 52//1 78//1 85//1
f 86//1 79//1 73//1
f 87//46 73//41 74//41
f 69//38 79//43 80//43
f 80//16 87//16 74//16
f 52//1 85//1 81//1
f 75//1 81//1 88//1
f 82//44 75//40 88//44
f 84//16 62//16 83//16
f 81//47 83//47 76//47
f 76//16 82//16 89//16
f 78//45 77//42 84//45
f 84//45 85//48 78//45
f 86//1 90//1 79//1
f 73//41 87//46 86//46
f 90//49 80//43 79//43
f 91//16 87//16 80//16
f 83//47 81//47 85//47
f 88//1 81//1 92//1
f 88//44 89//50 82//44
f 85//48 84//45 83//48
f 76//51 93//52 81//51
f 76//16 89//16 94//16
f 90//1 86//1 95//1
f 96//53 86//46 87//46
f 80//43 90//49 91//49
f 87//16 91//16 96//16
f 92//1 81//1 93//1
f 89//50 88//44 92//50
f 93//52 76//51 94//52
f 92//50 94//52 89//50
f 86//46 96//53 95//53
f 96//53 90//49 95//53
f 90//49 96//53 91//49
f 94//52 92//50 93//52
usemtl material_1_0
f 3//16 2//16 1//16
f 4//16 1//16 2//16
f 3//16 5//16 2//16
f 3//16 1//16 6//16
f 4//54 7//54 1//55
f 8//16 4//16 2//16
f 9//16 2//16 5//16
f 5//8 3//8 10//8
f 6//16 1//16 11//16
f 12//16 3//16 6//16
f 13//55 1//55 7//54
f 4//54 14//56 7//54
f 15//16 4//16 8//16
f 8//57 2//58 16//57
f 2//4 9//4 17//4
f 18//16 9//16 5//16
f 19//8 10//8 3//8
f 5//59 10//59 20//60
f 1//16 21//16 11//16
f 11//61 22//61 6//62
f 12//63 23//63 3//64
f 24//16 12//16 6//16
f 13//55 25//65 1//55
f 7//1 17//1 13//1
f 26//56 7//54 14//56
f 14//16 4//16 27//16
f 27//16 4//16 15//16
f 8//57 16//57 15//66
f 17//58 16//57 2//58
f 28//4 17//4 9//4
f 18//16 29//16 9//16
f 30//16 18//16 5//16
f 19//1 17//1 10//1
f 19//64 3//64 23//63
f 31//60 20//60 10//59
f 20//16 32//16 5//16
f 11//16 21//16 33//16
f 21//65 1//55 25//65
f 34//62 6//62 22//61
f 11//61 33//67 22//61
f 23//63 12//63 35//68
f 36//16 12//16 24//16
f 24//69 6//62 37//69
f 13//1 22//1 25//1
f 19//1 13//1 17//1
f 16//1 17//1 7//1
f 26//1 38//1 7//1
f 26//56 14//56 39//70
f 40//16 14//16 27//16
f 27//71 15//66 38//71
f 41//66 15//66 16//57
f 28//1 10//1 17//1
f 28//72 9//72 42//73
f 9//16 29//16 43//16
f 29//70 18//74 39//70
f 18//74 30//75 44//74
f 45//16 30//16 5//16
f 23//1 34//1 19//1
f 31//60 46//76 20//60
f 31//1 10//1 46//1
f 32//16 47//16 5//16
f 32//76 20//60 46//76
f 21//16 48//16 33//16
f 25//65 49//77 21//65
f 34//62 37//69 6//62
f 34//1 22//1 13//1
f 50//67 22//61 33//67
f 36//68 35//68 12//63
f 35//1 37//1 23//1
f 51//16 36//16 24//16
f 24//69 37//69 52//78
f 22//1 50//1 25//1
f 19//1 34//1 13//1
f 41//1 16//1 7//1
f 38//1 41//1 7//1
f 53//1 38//1 26//1
f 29//70 39//70 14//56
f 39//1 53//1 26//1
f 29//16 14//16 40//16
f 40//79 27//71 53//79
f 41//66 38//71 15//66
f 38//71 53//79 27//71
f 44//1 10//1 28//1
f 43//73 42//73 9//72
f 28//1 42//1 39//1
f 43//16 29//16 54//16
f 44//74 39//70 18//74
f 55//75 44//74 30//75
f 30//75 45//80 55//75
f 56//16 45//16 5//16
f 37//1 34//1 23//1
f 46//1 10//1 57//1
f 47//16 56//16 5//16
f 32//76 46//76 47//81
f 48//16 58//16 33//16
f 48//77 21//65 49//77
f 25//1 50//1 49//1
f 50//67 33//67 59//82
f 35//68 36//68 60//83
f 60//1 37//1 35//1
f 51//83 60//83 36//68
f 61//16 51//16 24//16
f 62//78 52//78 37//69
f 52//16 61//16 24//16
f 63//1 53//1 39//1
f 64//16 29//16 40//16
f 53//79 63//84 40//79
f 55//1 10//1 44//1
f 44//1 28//1 39//1
f 42//73 43//73 65//85
f 42//1 65//1 39//1
f 54//16 29//16 64//16
f 54//85 65//85 43//73
f 66//80 55//75 45//80
f 56//86 67//86 45//80
f 57//1 10//1 67//1
f 57//81 47//81 46//76
f 56//86 47//81 67//86
f 33//16 58//16 68//16
f 48//77 49//77 58//87
f 49//1 50//1 69//1
f 68//82 59//82 33//67
f 50//1 59//1 69//1
f 70//1 37//1 60//1
f 51//83 61//88 60//83
f 62//78 71//89 52//78
f 62//1 37//1 70//1
f 72//16 61//16 52//16
f 65//1 63//1 39//1
f 64//84 40//79 63//84
f 66//1 10//1 55//1
f 54//85 64//84 65//85
f 66//80 45//80 67//86
f 67//1 10//1 66//1
f 57//81 67//86 47//81
f 68//16 58//16 73//16
f 69//87 58//87 49//77
f 59//82 68//82 74//90
f 59//1 74//1 69//1
f 70//88 60//83 61//88
f 75//89 52//78 71//89
f 71//1 62//1 76//1
f 77//1 62//1 70//1
f 61//88 72//91 70//88
f 78//16 72//16 52//16
f 63//84 65//85 64//84
f 58//16 79//16 73//16
f 73//90 74//90 68//82
f 58//87 69//87 79//92
f 69//1 74//1 80//1
f 75//16 81//16 52//16
f 71//89 82//93 75//89
f 76//1 62//1 83//1
f 82//1 71//1 76//1
f 84//1 62//1 77//1
f 77//91 70//88 72//91
f 72//91 78//94 77//91
f 85//16 78//16 52//16
f 73//16 79//16 86//16
f 74//90 73//90 87//95
f 80//92 79//92 69//87
f 74//1 87//1 80//1
f 81//16 85//16 52//16
f 88//16 81//16 75//16
f 88//93 75//89 82//93
f 83//1 62//1 84//1
f 76//96 83//96 81//96
f 89//1 82//1 76//1
f 84//94 77//91 78//94
f 78//94 85//97 84//94
f 79//16 90//16 86//16
f 86//95 87//95 73//90
f 79//92 80//92 90//98
f 80//1 87//1 91//1
f 85//96 81//96 83//96
f 92//16 81//16 88//16
f 82//93 89//99 88//93
f 83//97 84//94 85//97
f 81//100 93//101 76//100
f 94//1 89//1 76//1
f 95//16 86//16 90//16
f 87//95 86//95 96//102
f 91//98 90//98 80//92
f 96//1 91//1 87//1
f 93//16 81//16 92//16
f 92//99 88//93 89//99
f 94//101 76//100 93//101
f 89//99 94//101 92//99
f 95//102 96//102 86//95
f 95//102 90//98 96//102
f 91//98 96//102 90//98
f 93//101 92//99 94//101
