# SSTK version 0.8.0
# 22
mtllib original-22.mtl
o mesh18/mesh18-geometry#mesh18-geometry
v 0.007347 0.715221 0.407665
v 0.008585 0.715221 0.406701
v 0.007351 0.715221 0.406696
v 0.008581 0.715221 0.407670
v 0.009087 0.713295 0.406703
v 0.007351 0.717036 0.406696
v 0.009083 0.713295 0.407672
v 0.009118 0.715284 0.406703
v 0.004909 0.713295 0.406685
v 0.007347 0.717036 0.407665
v 0.007351 0.718742 0.406696
v 0.004905 0.713295 0.407654
v 0.009114 0.715284 0.407672
v 0.007351 0.720442 0.406696
v 0.010172 0.713417 0.406708
v 0.008580 0.717036 0.406701
v 0.007347 0.720442 0.407665
v 0.008403 0.718742 0.406700
v 0.004905 0.722257 0.407654
v 0.010167 0.713417 0.407677
v 0.009466 0.715474 0.406705
v 0.004909 0.722257 0.406685
v 0.008575 0.717036 0.407670
v 0.007347 0.718742 0.407665
v 0.009462 0.715474 0.407674
v 0.009440 0.722257 0.406705
v 0.009659 0.715772 0.406706
v 0.009120 0.716976 0.406703
v 0.008884 0.718798 0.406702
v 0.009436 0.722257 0.407674
v 0.008399 0.718742 0.407669
v 0.010709 0.713536 0.406710
v 0.009655 0.715772 0.407675
v 0.008419 0.720442 0.406700
v 0.009723 0.716156 0.406706
v 0.009116 0.716976 0.407672
v 0.008415 0.720442 0.407669
v 0.010704 0.713536 0.407679
v 0.010508 0.718064 0.406709
v 0.009719 0.716156 0.407675
v 0.008888 0.720387 0.406702
v 0.009973 0.722217 0.406707
v 0.009469 0.716795 0.406705
v 0.008879 0.718798 0.407671
v 0.009191 0.718965 0.406704
v 0.008883 0.720387 0.407671
v 0.011091 0.713711 0.406712
v 0.010504 0.718064 0.407678
v 0.010441 0.722097 0.406709
v 0.011241 0.717748 0.406713
v 0.009969 0.722217 0.407676
v 0.009191 0.720222 0.406704
v 0.009659 0.716515 0.406706
v 0.009465 0.716795 0.407674
v 0.009187 0.718965 0.407673
v 0.009187 0.720222 0.407673
v 0.011086 0.713711 0.407681
v 0.010437 0.722097 0.407678
v 0.011237 0.717748 0.407682
v 0.010843 0.721896 0.406711
v 0.009655 0.716515 0.407675
v 0.009358 0.719959 0.406704
v 0.009358 0.719238 0.406704
v 0.009353 0.719959 0.407673
v 0.009413 0.719610 0.406705
v 0.011530 0.714093 0.406714
v 0.010838 0.721896 0.407680
v 0.010997 0.718323 0.406712
v 0.009353 0.719238 0.407673
v 0.009409 0.719610 0.407674
v 0.011526 0.714093 0.407683
v 0.011523 0.717528 0.406714
v 0.010993 0.718323 0.407680
v 0.011179 0.721615 0.406712
v 0.011865 0.714591 0.406715
v 0.011519 0.717528 0.407683
v 0.011750 0.717266 0.406715
v 0.011174 0.721615 0.407681
v 0.011352 0.718663 0.406713
v 0.011861 0.714591 0.407684
v 0.011746 0.717266 0.407684
v 0.011348 0.718663 0.407682
v 0.011444 0.721275 0.406714
v 0.012078 0.715183 0.406716
v 0.011924 0.716965 0.406716
v 0.011920 0.716965 0.407685
v 0.011440 0.721275 0.407682
v 0.011542 0.718961 0.406714
v 0.012073 0.715183 0.407685
v 0.011537 0.718961 0.407683
v 0.011629 0.720897 0.407683
v 0.011633 0.720897 0.406714
v 0.012148 0.715844 0.406717
v 0.012049 0.716628 0.406716
v 0.012045 0.716628 0.407685
v 0.011677 0.719288 0.406715
v 0.012144 0.715844 0.407686
v 0.011673 0.719288 0.407683
v 0.011743 0.720481 0.407684
v 0.011747 0.720481 0.406715
v 0.011785 0.720026 0.406715
v 0.011781 0.720026 0.407684
vn 0 1 0
vn -0.05919701691833226 0.9982462852958344 -0.0002590000740214547
vn 0.0043670020289336324 0 -0.9999904646011778
vn 0.9999904646011778 0 0.0043670020289336324
vn -0.0043670020289336324 0 0.9999904646011778
vn -0.3041618250723264 0.9526194521353739 -0.001327999236249267
vn 0.056103994404580616 -0.9984249004240944 0.0002449999755654187
vn 0 -1 0
vn -0.05561302054562249 -0.9984523688673129 -0.00024300008977372675
vn -0.6802422905230414 0.7329813130472234 -0.002970001268450688
vn -0.9999904646011778 0 -0.0043670020289336324
vn 0.16462402164205148 -0.9863561296698375 0.0007190000945222751
vn -0.057800008696358755 0.9983281502044715 -0.00025200003791492055
vn -0.2905781297511547 -0.9568504272601244 -0.0012690005666437766
vn 0.03752698502221396 0.9992956011607195 0.00016399993454427718
vn 0.3176140240233728 -0.9482190717204487 0.0013870001049085309
vn -0.9324066823398202 0.36138787687932733 -0.004071998612717137
vn -0.3020051233976576 0.9533053895154185 -0.001319000538936476
vn -0.05846502488356763 -0.9982894248865448 -0.0002550001085317668
vn -0.9999781288661899 -0.004967000640092447 -0.004367000562771031
vn -0.6642313711051744 -0.7475214176392114 -0.002901001620785707
vn 0.16276493709372405 0.9866646186685053 0.0007109997252089689
vn 0.5411741448469028 -0.8409072250713716 0.0023630006324642933
vn -0.3025010438708221 -0.953148138232225 -0.0013210001915807087
vn -0.9265211045125129 -0.37622104243811216 -0.004046000456392923
vn -0.6894023543225675 0.7243723722956227 -0.003010001547008753
vn 0.39565895191141603 0.9183958883777112 0.0017279997899780541
vn 0.5093201481989423 0.8605742504047684 0.002224000647126458
vn -0.6832517775711779 -0.7301767622950098 -0.0029839990285756867
vn 0.34988897354751985 0.936789929176342 0.001527999884479393
vn 0.7493809811508204 -0.6621309833454196 0.003271999917699387
vn 0.5476428567883996 0.8367087811960804 0.0023909993747405944
vn 0.5854769926806594 -0.8106849898652218 0.002556999968033665
vn 0.4693361159999554 -0.8830172182443551 0.002050000506673063
vn -0.935580383636686 -0.3530901447853497 -0.004086001675473502
vn -0.9401787165709463 0.3406568973045652 -0.0041059987621934815
vn 0.6885410904705183 0.7251910952861277 0.00300700039510334
vn -0.999978237895851 -0.004945001176420864 -0.0043670010389140375
vn 0.8922479508545382 -0.45152897512955903 0.0038959997854063903
vn 0.71888398421834 0.6951229847399653 0.003138999931089535
vn 0.7732275675675777 -0.6341196453645658 0.0033769981113923836
vn 0.8143214158797536 0.580403296416102 0.0035560018160754837
vn 0.9746441565902414 -0.2237200359437588 0.00425600068378615
vn 0.9051716485323266 0.42502783496661156 0.003952998465096453
vn 0.8454134622073053 0.5340996602432911 0.0036919976514102806
vn 0.8874904876709705 -0.4608097339845248 0.003875997762470472
vn 0.933956709678668 0.35736288891340584 0.004077998732350213
vn 0.9999414776851574 0.009898004728406663 0.004367002086174166
vn 0.9713606881597571 0.23757192373122846 0.004241998638172306
vn 0.9640306107124675 -0.2657578926836626 0.004209998299950405
vn 0.9847477549312729 0.17393495671376938 0.004299998929883049
vn 0.9995044410229361 -0.031174013755271627 0.004365001926020423
vn 0.05919701691833226 -0.9982462852958344 0.0002590000740214547
vn 0.3041618250723264 -0.9526194521353739 0.001327999236249267
vn -0.056103994404580616 0.9984249004240944 -0.0002449999755654187
vn 0.05561302054562249 0.9984523688673129 0.00024300008977372675
vn 0.6802422905230414 -0.7329813130472234 0.002970001268450688
vn -0.16462402164205148 0.9863561296698375 -0.0007190000945222751
vn 0.057800008696358755 -0.9983281502044715 0.00025200003791492055
vn 0.2905781297511547 0.9568504272601244 0.0012690005666437766
vn -0.03752698502221396 -0.9992956011607195 -0.00016399993454427718
vn -0.3176140240233728 0.9482190717204487 -0.0013870001049085309
vn 0.9324066823398202 -0.36138787687932733 0.004071998612717137
vn 0.3020051233976576 -0.9533053895154185 0.001319000538936476
vn 0.05846502488356763 0.9982894248865448 0.0002550001085317668
vn 0.9999781288661899 0.004967000640092447 0.004367000562771031
vn 0.6642313711051744 0.7475214176392114 0.002901001620785707
vn -0.16276493709372405 -0.9866646186685053 -0.0007109997252089689
vn -0.5411741448469028 0.8409072250713716 -0.0023630006324642933
vn 0.3025010438708221 0.953148138232225 0.0013210001915807087
vn 0.9265211045125129 0.37622104243811216 0.004046000456392923
vn 0.6894023543225675 -0.7243723722956227 0.003010001547008753
vn -0.39565895191141603 -0.9183958883777112 -0.0017279997899780541
vn -0.5093201481989423 -0.8605742504047684 -0.002224000647126458
vn 0.6832517775711779 0.7301767622950098 0.0029839990285756867
vn -0.34988897354751985 -0.936789929176342 -0.001527999884479393
vn -0.7493809811508204 0.6621309833454196 -0.003271999917699387
vn -0.5476428567883996 -0.8367087811960804 -0.0023909993747405944
vn -0.4693361159999554 0.8830172182443551 -0.002050000506673063
vn -0.5854769926806594 0.8106849898652218 -0.002556999968033665
vn 0.935580383636686 0.3530901447853497 0.004086001675473502
vn 0.9401787165709463 -0.3406568973045652 0.0041059987621934815
vn -0.6885410904705183 -0.7251910952861277 -0.00300700039510334
vn 0.999978237895851 0.004945001176420864 0.0043670010389140375
vn -0.8922479508545382 0.45152897512955903 -0.0038959997854063903
vn -0.71888398421834 -0.6951229847399653 -0.003138999931089535
vn -0.7732275675675777 0.6341196453645658 -0.0033769981113923836
vn -0.8143214158797536 -0.580403296416102 -0.0035560018160754837
vn -0.9746441565902414 0.2237200359437588 -0.00425600068378615
vn -0.9051716485323266 -0.42502783496661156 -0.003952998465096453
vn -0.8454134622073053 -0.5340996602432911 -0.0036919976514102806
vn -0.8874904876709705 0.4608097339845248 -0.003875997762470472
vn -0.933956709678668 -0.35736288891340584 -0.004077998732350213
vn -0.9999414776851574 -0.009898004728406663 -0.004367002086174166
vn -0.9713606881597571 -0.23757192373122846 -0.004241998638172306
vn -0.9640306107124675 0.2657578926836626 -0.004209998299950405
vn -0.9847477549312729 -0.17393495671376938 -0.004299998929883049
vn -0.9995044410229361 0.031174013755271627 -0.004365001926020423
usemtl material_0_0
f 1//1 2//2 3//1
f 2//2 1//1 4//2
f 5//3 3//3 2//3
f 6//4 1//4 3//4
f 1//5 7//5 4//5
f 4//2 8//6 2//2
f 9//3 3//3 5//3
f 5//3 2//3 8//3
f 1//4 6//4 10//4
f 3//3 11//3 6//3
f 1//5 12//5 7//5
f 4//5 7//5 13//5
f 8//6 4//2 13//6
f 3//3 9//3 14//3
f 5//7 12//8 9//8
f 5//3 8//3 15//3
f 16//9 10//8 6//8
f 17//5 1//5 10//5
f 3//3 14//3 11//3
f 18//3 6//3 11//3
f 12//5 1//5 19//5
f 12//8 5//7 7//7
f 13//5 7//5 20//5
f 13//6 21//10 8//6
f 22//3 14//3 9//3
f 12//11 22//11 9//11
f 15//3 8//3 21//3
f 15//12 7//7 5//7
f 10//8 16//9 23//9
f 6//3 18//3 16//3
f 17//5 19//5 1//5
f 17//5 10//5 24//5
f 14//4 24//4 11//4
f 24//1 18//13 11//1
f 22//11 12//11 19//11
f 7//7 15//12 20//12
f 13//5 20//5 25//5
f 21//10 13//6 25//10
f 14//3 22//3 26//3
f 15//3 21//3 27//3
f 28//14 23//9 16//9
f 23//5 24//5 10//5
f 16//3 18//3 29//3
f 19//5 17//5 30//5
f 24//4 14//4 17//4
f 18//13 24//1 31//13
f 19//1 26//15 22//1
f 32//16 20//12 15//12
f 25//5 20//5 33//5
f 25//10 27//17 21//10
f 14//3 26//3 34//3
f 15//3 27//3 35//3
f 23//9 28//14 36//14
f 16//3 29//3 28//3
f 24//5 23//5 31//5
f 31//13 29//18 18//13
f 30//5 17//5 37//5
f 26//15 19//1 30//15
f 34//19 17//8 14//8
f 20//12 32//16 38//16
f 15//3 39//3 32//3
f 33//5 20//5 40//5
f 27//17 25//10 33//17
f 34//3 26//3 41//3
f 27//17 40//20 35//20
f 15//3 35//3 42//3
f 43//21 36//14 28//14
f 44//5 23//5 36//5
f 28//3 29//3 45//3
f 31//5 23//5 44//5
f 29//18 31//13 44//18
f 17//8 34//19 37//19
f 30//5 37//5 46//5
f 30//15 42//22 26//15
f 47//23 38//16 32//16
f 48//5 20//5 38//5
f 15//3 49//3 39//3
f 32//3 39//3 50//3
f 40//5 20//5 51//5
f 40//20 27//17 33//17
f 41//3 26//3 52//3
f 41//24 37//19 34//19
f 40//20 53//25 35//20
f 53//3 42//3 35//3
f 15//3 42//3 49//3
f 36//14 43//21 54//21
f 28//3 45//3 43//3
f 44//5 36//5 55//5
f 44//18 45//26 29//18
f 37//19 41//24 46//24
f 30//5 46//5 56//5
f 42//22 30//15 51//22
f 43//3 26//3 42//3
f 38//16 47//23 57//23
f 32//3 50//3 47//3
f 58//5 20//5 48//5
f 48//5 38//5 59//5
f 60//3 39//3 49//3
f 48//27 50//28 39//27
f 51//5 20//5 58//5
f 51//5 61//5 40//5
f 52//3 26//3 62//3
f 52//29 46//24 41//24
f 53//25 40//20 61//25
f 43//3 42//3 53//3
f 51//22 49//30 42//22
f 53//25 54//21 43//21
f 55//5 36//5 54//5
f 43//3 45//3 63//3
f 45//26 44//18 55//26
f 46//24 52//29 56//29
f 30//5 56//5 64//5
f 30//5 54//5 51//5
f 43//3 65//3 26//3
f 66//31 57//23 47//23
f 59//5 38//5 57//5
f 47//3 50//3 66//3
f 48//5 67//5 58//5
f 50//28 48//27 59//28
f 39//3 60//3 68//3
f 58//30 60//32 49//30
f 68//33 48//34 39//34
f 49//30 51//22 58//30
f 51//5 54//5 61//5
f 62//3 26//3 65//3
f 64//35 52//29 62//35
f 54//21 53//25 61//25
f 55//5 54//5 69//5
f 55//26 63//36 45//26
f 43//3 63//3 65//3
f 52//29 64//35 56//29
f 30//5 64//5 70//5
f 70//5 54//5 30//5
f 57//23 66//31 71//31
f 59//5 57//5 71//5
f 66//3 50//3 72//3
f 67//5 48//5 73//5
f 60//32 58//30 67//32
f 59//28 72//37 50//28
f 68//3 60//3 74//3
f 48//34 68//33 73//33
f 65//38 64//35 62//35
f 69//5 54//5 70//5
f 63//36 55//26 69//36
f 69//36 65//38 63//36
f 64//35 65//38 70//38
f 75//39 71//31 66//31
f 59//5 71//5 76//5
f 66//3 72//3 77//3
f 67//5 73//5 78//5
f 67//32 74//40 60//32
f 72//37 59//28 76//37
f 68//3 74//3 79//3
f 79//41 73//33 68//33
f 65//38 69//36 70//38
f 71//31 75//39 80//39
f 66//3 77//3 75//3
f 76//5 71//5 81//5
f 72//37 81//42 77//42
f 78//5 73//5 82//5
f 74//40 67//32 78//40
f 81//42 72//37 76//37
f 79//3 74//3 83//3
f 73//33 79//41 82//41
f 84//43 80//39 75//39
f 81//5 71//5 80//5
f 75//3 77//3 85//3
f 86//44 77//42 81//42
f 78//5 82//5 87//5
f 87//45 74//40 78//40
f 74//40 87//45 83//45
f 79//3 83//3 88//3
f 88//46 82//41 79//41
f 80//39 84//43 89//43
f 75//3 85//3 84//3
f 81//5 80//5 86//5
f 77//42 86//44 85//44
f 87//5 82//5 90//5
f 91//47 83//45 87//45
f 88//3 83//3 92//3
f 82//41 88//46 90//46
f 93//48 89//43 84//43
f 86//5 80//5 89//5
f 84//3 85//3 94//3
f 95//49 85//44 86//44
f 87//5 90//5 91//5
f 83//45 91//47 92//47
f 88//3 92//3 96//3
f 96//50 90//46 88//46
f 89//43 93//48 97//48
f 84//3 94//3 93//3
f 86//5 89//5 95//5
f 85//44 95//49 94//49
f 91//5 90//5 98//5
f 99//51 92//47 91//47
f 96//3 92//3 100//3
f 90//46 96//50 98//50
f 94//49 97//48 93//48
f 95//5 89//5 97//5
f 97//48 94//49 95//49
f 91//5 98//5 99//5
f 92//47 99//51 100//51
f 96//3 100//3 101//3
f 101//52 98//50 96//50
f 99//5 98//5 102//5
f 102//52 100//51 99//51
f 100//51 102//52 101//52
f 98//50 101//52 102//52
usemtl material_1_0
f 3//8 2//53 1//8
f 4//53 1//8 2//53
f 2//5 3//5 5//5
f 3//11 1//11 6//11
f 4//3 7//3 1//3
f 2//53 8//54 4//53
f 5//5 3//5 9//5
f 8//5 2//5 5//5
f 10//11 6//11 1//11
f 6//5 11//5 3//5
f 7//3 12//3 1//3
f 13//3 7//3 4//3
f 13//54 4//53 8//54
f 14//5 9//5 3//5
f 9//1 12//1 5//55
f 15//5 8//5 5//5
f 6//1 10//1 16//56
f 10//3 1//3 17//3
f 11//5 14//5 3//5
f 11//5 6//5 18//5
f 19//3 1//3 12//3
f 7//55 5//55 12//1
f 20//3 7//3 13//3
f 8//54 21//57 13//54
f 9//5 14//5 22//5
f 9//4 22//4 12//4
f 21//5 8//5 15//5
f 5//55 7//55 15//58
f 23//56 16//56 10//1
f 16//5 18//5 6//5
f 1//3 19//3 17//3
f 24//3 10//3 17//3
f 11//11 24//11 14//11
f 11//8 18//59 24//8
f 19//4 12//4 22//4
f 20//58 15//58 7//55
f 25//3 20//3 13//3
f 25//57 13//54 21//57
f 26//5 22//5 14//5
f 27//5 21//5 15//5
f 16//56 23//56 28//60
f 10//3 24//3 23//3
f 29//5 18//5 16//5
f 30//3 17//3 19//3
f 17//11 14//11 24//11
f 31//59 24//8 18//59
f 22//8 26//61 19//8
f 15//58 20//58 32//62
f 33//3 20//3 25//3
f 21//57 27//63 25//57
f 34//5 26//5 14//5
f 35//5 27//5 15//5
f 36//60 28//60 23//56
f 28//5 29//5 16//5
f 31//3 23//3 24//3
f 18//59 29//64 31//59
f 37//3 17//3 30//3
f 30//61 19//8 26//61
f 14//1 17//1 34//65
f 38//62 32//62 20//58
f 32//5 39//5 15//5
f 40//3 20//3 33//3
f 33//63 25//57 27//63
f 41//5 26//5 34//5
f 35//66 40//66 27//63
f 42//5 35//5 15//5
f 28//60 36//60 43//67
f 36//3 23//3 44//3
f 45//5 29//5 28//5
f 44//3 23//3 31//3
f 44//64 31//59 29//64
f 37//65 34//65 17//1
f 46//3 37//3 30//3
f 26//61 42//68 30//61
f 32//62 38//62 47//69
f 38//3 20//3 48//3
f 39//5 49//5 15//5
f 50//5 39//5 32//5
f 51//3 20//3 40//3
f 33//63 27//63 40//66
f 52//5 26//5 41//5
f 34//65 37//65 41//70
f 35//66 53//71 40//66
f 35//5 42//5 53//5
f 49//5 42//5 15//5
f 54//67 43//67 36//60
f 43//5 45//5 28//5
f 55//3 36//3 44//3
f 29//64 45//72 44//64
f 46//70 41//70 37//65
f 56//3 46//3 30//3
f 51//68 30//61 42//68
f 42//5 26//5 43//5
f 57//69 47//69 38//62
f 47//5 50//5 32//5
f 48//3 20//3 58//3
f 59//3 38//3 48//3
f 49//5 39//5 60//5
f 39//73 50//74 48//73
f 58//3 20//3 51//3
f 40//3 61//3 51//3
f 62//5 26//5 52//5
f 41//70 46//70 52//75
f 61//71 40//66 53//71
f 53//5 42//5 43//5
f 42//68 49//76 51//68
f 43//67 54//67 53//71
f 54//3 36//3 55//3
f 63//5 45//5 43//5
f 55//72 44//64 45//72
f 56//75 52//75 46//70
f 64//3 56//3 30//3
f 51//3 54//3 30//3
f 26//5 65//5 43//5
f 47//69 57//69 66//77
f 57//3 38//3 59//3
f 66//5 50//5 47//5
f 58//3 67//3 48//3
f 59//74 48//73 50//74
f 68//5 60//5 39//5
f 49//76 60//78 58//76
f 39//79 48//79 68//80
f 58//76 51//68 49//76
f 61//3 54//3 51//3
f 65//5 26//5 62//5
f 62//81 52//75 64//81
f 61//71 53//71 54//67
f 69//3 54//3 55//3
f 45//72 63//82 55//72
f 65//5 63//5 43//5
f 56//75 64//81 52//75
f 70//3 64//3 30//3
f 30//3 54//3 70//3
f 71//77 66//77 57//69
f 71//3 57//3 59//3
f 72//5 50//5 66//5
f 73//3 48//3 67//3
f 67//78 58//76 60//78
f 50//74 72//83 59//74
f 74//5 60//5 68//5
f 73//80 68//80 48//79
f 62//81 64//81 65//84
f 70//3 54//3 69//3
f 69//82 55//72 63//82
f 63//82 65//84 69//82
f 70//84 65//84 64//81
f 66//77 71//77 75//85
f 76//3 71//3 59//3
f 77//5 72//5 66//5
f 78//3 73//3 67//3
f 60//78 74//86 67//78
f 76//83 59//74 72//83
f 79//5 74//5 68//5
f 68//80 73//80 79//87
f 70//84 69//82 65//84
f 80//85 75//85 71//77
f 75//5 77//5 66//5
f 81//3 71//3 76//3
f 77//88 81//88 72//83
f 82//3 73//3 78//3
f 78//86 67//78 74//86
f 76//83 72//83 81//88
f 83//5 74//5 79//5
f 82//87 79//87 73//80
f 75//85 80//85 84//89
f 80//3 71//3 81//3
f 85//5 77//5 75//5
f 81//88 77//88 86//90
f 87//3 82//3 78//3
f 78//86 74//86 87//91
f 83//91 87//91 74//86
f 88//5 83//5 79//5
f 79//87 82//87 88//92
f 89//89 84//89 80//85
f 84//5 85//5 75//5
f 86//3 80//3 81//3
f 85//90 86//90 77//88
f 90//3 82//3 87//3
f 87//91 83//91 91//93
f 92//5 83//5 88//5
f 90//92 88//92 82//87
f 84//89 89//89 93//94
f 89//3 80//3 86//3
f 94//5 85//5 84//5
f 86//90 85//90 95//95
f 91//3 90//3 87//3
f 92//93 91//93 83//91
f 96//5 92//5 88//5
f 88//92 90//92 96//96
f 97//94 93//94 89//89
f 93//5 94//5 84//5
f 95//3 89//3 86//3
f 94//95 95//95 85//90
f 98//3 90//3 91//3
f 91//93 92//93 99//97
f 100//5 92//5 96//5
f 98//96 96//96 90//92
f 93//94 97//94 94//95
f 97//3 89//3 95//3
f 95//95 94//95 97//94
f 99//3 98//3 91//3
f 100//97 99//97 92//93
f 101//5 100//5 96//5
f 96//96 98//96 101//98
f 102//3 98//3 99//3
f 99//97 100//97 102//98
f 101//98 102//98 100//97
f 102//98 101//98 98//96
