# SSTK version 0.8.0
# 2
mtllib original-2.mtl
o Group2/mesh1/mesh1-geometry#mesh1-geometry
v -0.211793 0.329256 0.407899
v -0.242045 0.261059 0.403824
v -0.242045 0.329256 0.403824
v -0.230725 0.261059 0.405349
v -0.243718 0.267607 0.414657
v -0.213206 0.329256 0.418391
v -0.221259 0.261059 0.406624
v -0.242045 0.229533 0.403824
v -0.243741 0.236788 0.414036
v -0.243623 0.298433 0.414750
v -0.243458 0.329256 0.414316
v -0.213372 0.298433 0.418825
v -0.211793 0.261059 0.407899
v -0.228175 0.261059 0.386417
v -0.230725 0.229533 0.405349
v -0.213490 0.236788 0.418111
v -0.213466 0.267607 0.418731
v -0.221259 0.229533 0.406624
v -0.218709 0.261059 0.387692
v -0.228175 0.229533 0.386417
v -0.211804 0.209552 0.407182
v -0.242055 0.209552 0.403107
v -0.213442 0.205984 0.416963
v -0.211793 0.229533 0.407899
v -0.218709 0.229533 0.387692
v -0.243694 0.205984 0.412888
v -0.211793 0.189578 0.406307
v -0.242045 0.189578 0.402232
v -0.213324 0.175205 0.415288
v -0.243576 0.175205 0.411214
v -0.211761 0.169612 0.405274
v -0.242013 0.169612 0.401199
v -0.213135 0.144462 0.413087
v -0.241960 0.149656 0.400008
v -0.243387 0.144462 0.409013
v -0.211708 0.149656 0.404083
v -0.212875 0.113762 0.410361
v -0.211634 0.129709 0.402734
v -0.241885 0.129709 0.398660
v -0.243127 0.113762 0.406287
v -0.212545 0.083117 0.407110
v -0.211538 0.109775 0.401228
v -0.241790 0.109775 0.397153
v -0.242797 0.083117 0.403036
v -0.211421 0.089854 0.399563
v -0.241673 0.089854 0.395489
v -0.212144 0.052535 0.403335
v -0.211283 0.069947 0.397742
v -0.241535 0.069947 0.393667
v -0.242395 0.052535 0.399261
v -0.211672 0.022026 0.399038
v -0.211123 0.050056 0.395762
v -0.241375 0.050056 0.391688
v -0.241924 0.022026 0.394964
v -0.210943 0.030182 0.393626
v -0.241195 0.030182 0.389551
v -0.211130 -0.008401 0.394220
v -0.210741 0.010327 0.391332
v -0.240993 0.010327 0.387258
v -0.241382 -0.008401 0.390145
v -0.210518 -0.038736 0.388882
v -0.210518 -0.009509 0.388882
v -0.240770 -0.009509 0.384807
v -0.240770 -0.038736 0.384807
vt -0.039949 0.472156
vt 0 0.384656
vt 0 0.472156
vt -0.014949 0.384656
vt -0.472156 0.024995
vt -0.384656 0.024995
vt -0.393057 0.03934
vt 0 0.025
vt -0.039949 0.038855
vt -0.039949 0.025
vt -0.027449 0.384656
vt 0 0.344205
vt -0.393053 0.039373
vt -0.384653 0.025027
vt -0.353509 0.038572
vt -0.432605 0.039447
vt -0.472153 0.025
vt -0.393054 0.039342
vt 0 0.038855
vt 0.432746 0.039447
vt 0.472293 0.025
vt 0.472293 0.038855
vt -0.039949 0.384656
vt -0.027449 0.025
vt -0.014949 0
vt -0.014949 0.025
vt -0.014949 0.344205
vt -0.384656 0.024988
vt -0.344205 0.024988
vt -0.353514 0.038536
vt 0.039532 0.354222
vt -0.000278 0.393773
vt -0.000417 0.354222
vt -0.472153 0.038855
vt 0.039671 0.39316
vt -0.000139 0.432711
vt -0.000278 0.39316
vt 0 -0.471522
vt -0.03981 -0.43197
vt -0.039949 -0.471522
vt 0.393194 0.039342
vt 0.472156 0.024222
vt 0.393057 0.038567
vt 0.384656 0.024222
vt -0.027449 0.344205
vt -0.027449 0
vt -0.344205 0
vt -0.384656 0.025
vt -0.384656 0
vt -0.344205 0.025
vt -0.03981 0.319231
vt 0 0.344884
vt -0.014949 0.344884
vt -0.353503 0.038616
vt -0.344197 0.025066
vt -0.318561 0.024137
vt 0.039671 0.393773
vt -0.000417 0.354719
vt 0.039393 0.315168
vt 0.039532 0.354719
vt 0.000139 -0.43197
vt 0.03981 0.432711
vt 0.393211 0.038507
vt 0.353667 0.037706
vt 0.384811 0.024162
vt -0.039949 0.344205
vt 0.344205 0
vt 0.384656 0.025
vt 0.344205 0.025
vt 0.384656 0
vt 0.014949 0
vt 0.027449 0.025
vt 0.014949 0.025
vt -0.027449 0.344884
vt 0.000139 0.319231
vt -0.353508 0.038586
vt -0.318565 0.02411
vt -0.313984 0.037089
vt -0.000556 0.315168
vt 0.353695 0.03737
vt 0.314171 0.035872
vt 0.318751 0.022894
vt 0.384656 0.02376
vt 0.353514 0.037308
vt 0.344205 0.02376
vt -0.039949 0.344884
vt 0.027449 0
vt -0.039671 0.29367
vt 0.000139 0.319322
vt -0.03981 0.319322
vt -0.318561 0.024129
vt -0.292933 0.022992
vt -0.31398 0.037107
vt -0.000556 0.315561
vt 0.039254 0.27601
vt 0.039393 0.315561
vt 0.31883 0.022942
vt 0.314249 0.03592
vt 0.293202 0.021804
vt 0.353771 0.037204
vt 0.318828 0.022725
vt 0.344465 0.023654
vt 0.000278 0.29367
vt -0.292936 0.022974
vt -0.274493 0.034895
vt -0.000695 0.27601
vt 0.314185 0.036003
vt 0.274694 0.033809
vt 0.293137 0.021888
vt -0.039532 0.268088
vt 0.000278 0.293741
vt -0.039671 0.293741
vt -0.267314 0.021638
vt -0.274489 0.034904
vt -0.292932 0.022984
vt -0.000695 0.276312
vt 0.039114 0.23676
vt 0.039254 0.276312
vt 0.274761 0.033925
vt 0.267587 0.020659
vt 0.293205 0.022005
vt 0.000417 0.268088
vt -0.241708 0.020084
vt -0.000834 0.23676
vt 0.274694 0.034068
vt 0.235248 0.03118
vt 0.241913 0.019249
vt 0.241981 0.019105
vt -0.039392 0.242487
vt 0.000417 0.26814
vt -0.039532 0.26814
vt 0.000556 0.242487
vt -0.274493 0.034887
vt -0.241712 0.020068
vt -0.235047 0.031999
vt -0.000834 0.236982
vt 0.038975 0.197431
vt 0.039114 0.236982
vt 0.241979 0.019295
vt 0.235313 0.031225
vt 0.216387 0.017532
vt -0.039253 0.21687
vt 0.000556 0.242523
vt -0.039392 0.242523
vt -0.241708 0.020075
vt -0.216116 0.018312
vt -0.235043 0.032006
vt -0.000974 0.197431
vt 0.23525 0.031307
vt 0.195861 0.027725
vt 0.216323 0.017614
vt 0.000695 0.21687
vt -0.235046 0.031994
vt -0.216119 0.018302
vt -0.195657 0.028412
vt -0.000974 0.197586
vt 0.038836 0.158034
vt 0.038975 0.197586
vt 0.195917 0.027843
vt 0.190802 0.015762
vt 0.21638 0.017733
vt -0.039114 0.191238
vt 0.000695 0.216891
vt -0.039253 0.216891
vt -0.190539 0.016331
vt -0.195654 0.028412
vt -0.216116 0.018302
vt -0.001113 0.158034
vt 0.195843 0.028002
vt 0.156523 0.023728
vt 0.165167 0.013743
vt 0.165242 0.013583
vt 0.000834 0.191238
vt -0.164978 0.014152
vt -0.195658 0.0284
vt -0.164982 0.014141
vt -0.156338 0.024125
vt -0.001113 0.158134
vt 0.038697 0.118583
vt 0.038836 0.158134
vt 0.165228 0.013799
vt 0.156584 0.023783
vt 0.139686 0.011412
vt -0.038975 0.165592
vt 0.000834 0.191244
vt -0.039114 0.191244
vt 0.000973 0.165592
vt -0.164979 0.014141
vt -0.139437 0.011754
vt -0.156335 0.024125
vt -0.001252 0.118583
vt 0.15651 0.023883
vt 0.117271 0.018917
vt 0.139612 0.011511
vt -0.038836 0.139934
vt 0.000973 0.165587
vt -0.038975 0.165587
vt 0.001112 0.139934
vt -0.156339 0.024118
vt -0.139441 0.011747
vt -0.1171 0.019153
vt -0.001252 0.11864
vt 0.038558 0.079088
vt 0.038697 0.11864
vt 0.117323 0.019073
vt 0.114142 0.009073
vt 0.139664 0.011668
vt -0.038697 0.114266
vt 0.001112 0.139919
vt -0.038836 0.139919
vt -0.113916 0.009146
vt -0.117097 0.019146
vt -0.139438 0.01174
vt -0.001391 0.079088
vt 0.117219 0.019305
vt 0.078074 0.013649
vt 0.088539 0.006502
vt 0.088642 0.00627
vt 0.001252 0.114266
vt -0.088417 0.006343
vt -0.117102 0.019136
vt -0.088421 0.006332
vt -0.077957 0.01348
vt -0.001391 0.079115
vt 0.038419 0.039563
vt 0.038558 0.079115
vt 0.088605 0.006597
vt 0.07814 0.013744
vt 0.063129 0.003587
vt -0.038558 0.088589
vt 0.001252 0.114242
vt -0.038697 0.114242
vt 0.001391 0.088589
vt -0.088419 0.006327
vt -0.062942 0.003317
vt -0.077954 0.013474
vt -0.00153 0.039563
vt 0.078029 0.01391
vt 0.038989 0.007565
vt 0.063018 0.003752
vt -0.038419 0.062906
vt 0.001391 0.088559
vt -0.038558 0.088559
vt 0.00153 0.062906
vt -0.077959 0.013469
vt -0.062948 0.003311
vt -0.038919 0.007124
vt -0.00153 0.039571
vt 0.03828 0.00002
vt 0.038419 0.039571
vt 0.063067 0.004059
vt 0.039038 0.007873
vt 0.037616 0.000841
vt -0.03828 0.037218
vt 0.00153 0.062871
vt -0.038419 0.062871
vt -0.062945 0.003296
vt -0.037495 0.000078
vt -0.038917 0.00711
vt -0.001669 0.00002
vt 0.038922 0.007898
vt 0 0.000867
vt 0.0375 0.000867
vt 0.001669 0.037218
vt -0.038922 0.007111
vt -0.0375 0.000079
vt 0 0.000079
vt 0.001669 0
vt -0.03828 0.0375
vt -0.03828 0
vt 0.001669 0.0375
vn 0.1334810492570524 0 -0.9910513657168513
vn -0.9897123923888757 0.001789000709280779 -0.14306005671867428
vn -0.9875744557025116 0.001344000620170413 -0.15714607251287185
vn -0.9891311544399831 0.002537000396119662 -0.1470140229543303
vn 0 1 0
vn -0.9866660308130873 0.0039080001220448924 -0.16271100508138342
vn -0.9910454406213784 0.0035790015912334086 -0.1334770593442475
vn 0.9910454406213784 -0.0035790015912334086 0.1334770593442475
vn 0.9897123923888757 -0.001789000709280779 0.14306005671867428
vn -0.9860933867838667 0.003415001339495265 -0.16615706517321077
vn -0.133422030355917 -0.029632006741815674 0.9906162253830479
vn -0.13347197072132477 -0.011677997438291406 0.9909837826158393
vn -0.1334779848269577 0.006278999286237936 0.9910318873449522
vn -0.1334650087496326 0.015258001000276437 0.9909360649632932
vn 0.9891311544399831 -0.002537000396119662 0.1470140229543303
vn 0.9875744557025116 -0.001344000620170413 0.15714607251287185
vn -0.9910513657168513 0 -0.1334810492570524
vn 0.1333680207798062 0.04104800639560829 -0.9902161542836107
vn 0.13338993619740785 0.036897982351090444 -0.9903765262866795
vn -0.9862790319189487 0.006157000199259 -0.16497200533898906
vn -0.1333300203617623 -0.04757500726551294 0.9899291511790218
vn 0.9866660308130873 -0.0039080001220448924 0.16271100508138342
vn 0.9910513657168513 0 0.1334810492570524
vn 0 -1 0
vn -0.9867274131852838 0.0055920023416123265 -0.1622890679574254
vn 0.9867274131852838 -0.0055920023416123265 0.1622890679574254
vn 0.9862790319189487 -0.006157000199259 0.16497200533898906
vn 0.9860933867838667 -0.003415001339495265 0.16615706517321077
vn 0.1333180224110281 0.049344008294827185 -0.9898441663947981
vn -0.987043387666302 0.006320002482213064 -0.1603290629700535
vn -0.13319400975186638 -0.06550200479576222 0.9889230724045
vn 0.987043387666302 -0.006320002482213064 0.1603290629700535
vn -0.987535451496374 0.005739002623843905 -0.15729207191316524
vn 0.987535451496374 -0.005739002623843905 0.15729207191316524
vn 0.1332589826719358 0.05763699250528944 -0.9894038713448546
vn -0.9874584647196478 0.006950996232011935 -0.15772591450011716
vn -0.13301602482770938 -0.08340601556790107 0.9875981843371936
vn 0.9874584647196478 -0.006950996232011935 0.15772591450011716
vn -0.987930384065421 0.006332002461613926 -0.1547690601676446
vn 0.9883075757250844 -0.005749997531558215 0.15236493459058562
vn 0.987930384065421 -0.006332002461613926 0.1547690601676446
vn 0.13319005763128378 0.06592602852616575 -0.9888954278946497
vn -0.9883075757250844 0.005749997531558215 -0.15236493459058562
vn -0.13279404319644855 -0.10128103294561129 0.9859553207204725
vn 0.9886206431065293 -0.0062809977325508064 0.15029894574186492
vn 0.1331129573619299 0.07420997622943526 -0.9883186834267517
vn -0.9886206431065293 0.0062809977325508064 -0.15029894574186492
vn 0.9890992133892764 -0.0055490011971471975 0.14714603174543547
vn -0.9890992133892764 0.0055490011971471975 -0.14714603174543547
vn -0.13252998849865052 -0.11912098966232361 0.983994914605973
vn 0.9890281370847489 -0.006727000932399393 0.14757402045457232
vn 0.13302599221159442 0.08248799517049299 -0.9876739421736677
vn -0.9890281370847489 0.006727000932399393 -0.14757402045457232
vn 0.9899191127587228 -0.005155000587190686 0.14154001612239953
vn 0.9895173293129064 -0.005938001976176294 0.144292048020618
vn -0.9895173293129064 0.005938001976176294 -0.144292048020618
vn -0.9899191127587228 0.005155000587190686 -0.14154001612239953
vn -0.1322239847769874 -0.1369189842364498 0.9817178869743353
vn 0.9902975869845939 -0.005501997705326312 0.1388539420893093
vn 0.13293001475383667 0.0907600100734087 -0.9869611095423261
vn -0.9902975869845939 0.005501997705326312 -0.1388539420893093
vn 0.9908865481375058 -0.004377998003552373 0.13462793860718342
vn 0.13282503827686093 0.09902502853654171 -0.9861802841925442
vn -0.9908865481375058 0.004377998003552373 -0.13462793860718342
vn -0.1318740240180863 -0.15467102817008224 0.9791251783271058
vn 0.9907897327255886 -0.0057569984469980654 0.13528696350512892
vn 0.13270995113534237 0.10728296049772389 -0.9853316371945533
vn -0.9907897327255886 0.0057569984469980654 -0.13528696350512892
vn 0.991999841731398 -0.0031829994921683865 0.12619897986558537
vn 0.9914448028859211 -0.0045019991049351366 0.13044897406478978
vn -0.9914448028859211 0.0045019991049351366 -0.13044897406478978
vn -0.991999841731398 0.0031829994921683865 -0.12619897986558537
vn -0.13148299406768463 -0.1723679922230149 0.9762179559545111
vn 0.9926127571166217 -0.0032179992125846513 0.12128297032315234
vn 0.13258699477057015 0.11553299544320544 -0.984414961173198
vn -0.9926127571166217 0.0032179992125846513 -0.12128297032315234
vn 0.9931313880984425 -0.0016350006389297617 0.11699304571884382
vn 0.13245394407120145 0.12377494773591556 -0.9834305847455399
vn -0.9931313880984425 0.0016350006389297617 -0.11699304571884382
vn -0.1312709686213196 -0.18119495668761573 0.9746467670229014
vn 0.9934542646463168 -0.0015520004134374455 0.11422003042707798
vn 0.132384992225162 0.12789199248903138 -0.9829129422745074
vn -0.9934542646463168 0.0015520004134374455 -0.11422003042707798
vn 0.9934906192562182 0 0.11391395634379459
vn -0.9934906192562182 0 -0.11391395634379459
vn -0.1334810492570524 0 0.9910513657168513
vn 0.133422030355917 0.029632006741815674 -0.9906162253830479
vn 0.13347197072132477 0.011677997438291406 -0.9909837826158393
vn 0.1334779848269577 -0.006278999286237936 -0.9910318873449522
vn 0.1334650087496326 -0.015258001000276437 -0.9909360649632932
vn -0.13338993619740785 -0.036897982351090444 0.9903765262866795
vn -0.1333680207798062 -0.04104800639560829 0.9902161542836107
vn 0.1333300203617623 0.04757500726551294 -0.9899291511790218
vn -0.1333180224110281 -0.049344008294827185 0.9898441663947981
vn 0.13319400975186638 0.06550200479576222 -0.9889230724045
vn -0.1332589826719358 -0.05763699250528944 0.9894038713448546
vn 0.13301602482770938 0.08340601556790107 -0.9875981843371936
vn -0.13319005763128378 -0.06592602852616575 0.9888954278946497
vn 0.13279404319644855 0.10128103294561129 -0.9859553207204725
vn -0.1331129573619299 -0.07420997622943526 0.9883186834267517
vn 0.13252998849865052 0.11912098966232361 -0.983994914605973
vn -0.13302599221159442 -0.08248799517049299 0.9876739421736677
vn 0.1322239847769874 0.1369189842364498 -0.9817178869743353
vn -0.13293001475383667 -0.0907600100734087 0.9869611095423261
vn -0.13282503827686093 -0.09902502853654171 0.9861802841925442
vn 0.1318740240180863 0.15467102817008224 -0.9791251783271058
vn -0.13270995113534237 -0.10728296049772389 0.9853316371945533
vn 0.13148299406768463 0.1723679922230149 -0.9762179559545111
vn -0.13258699477057015 -0.11553299544320544 0.984414961173198
vn -0.13245394407120145 -0.12377494773591556 0.9834305847455399
vn 0.1312709686213196 0.18119495668761573 -0.9746467670229014
vn -0.132384992225162 -0.12789199248903138 0.9829129422745074
usemtl material_0_0
f 1/1/1 2/2/1 3/3/1
f 2/2/1 1/1/1 4/4/1
f 3/5/2 2/6/3 5/7/4
f 3/8/5 6/9/5 1/10/5
f 4/4/1 1/1/1 7/11/1
f 4/4/1 8/12/1 2/2/1
f 5/13/4 2/14/3 9/15/6
f 10/16/7 3/17/2 5/18/4
f 6/9/5 3/8/5 11/19/5
f 12/20/8 1/21/9 6/22/8
f 7/11/1 1/1/1 13/23/1
f 7/24/5 14/25/5 4/26/5
f 7/11/1 15/27/1 4/4/1
f 8/12/1 4/4/1 15/27/1
f 2/28/3 8/29/10 9/30/6
f 16/31/11 5/32/12 9/33/11
f 3/17/2 10/16/7 11/34/7
f 17/35/12 10/36/13 5/37/12
f 11/38/14 12/39/13 6/40/14
f 1/21/9 12/20/8 17/41/15
f 1/42/9 17/43/15 13/44/16
f 13/23/1 18/45/1 7/11/1
f 14/25/5 7/24/5 19/46/5
f 20/47/17 4/48/17 14/49/17
f 15/27/1 7/11/1 18/45/1
f 4/48/17 20/47/17 15/50/17
f 21/51/18 8/52/19 15/53/19
f 9/54/6 8/55/10 22/56/20
f 5/32/12 16/31/11 17/57/12
f 9/58/11 23/59/21 16/60/11
f 12/39/13 11/38/14 10/61/13
f 10/36/13 17/35/12 12/62/13
f 17/63/15 16/64/22 13/65/16
f 18/45/1 13/23/1 24/66/1
f 25/67/23 7/68/23 18/69/23
f 7/68/23 25/67/23 19/70/23
f 20/71/24 18/72/24 15/73/24
f 21/51/18 15/53/19 18/74/19
f 8/52/19 21/51/18 22/75/18
f 9/76/6 22/77/20 26/78/25
f 23/59/21 9/58/11 26/79/21
f 16/80/22 23/81/26 21/82/27
f 13/83/16 16/84/22 24/85/28
f 21/51/18 18/74/19 24/86/19
f 18/72/24 20/71/24 25/87/24
f 27/88/29 22/89/18 21/90/18
f 22/91/20 28/92/30 26/93/25
f 26/94/21 29/95/31 23/96/21
f 21/97/27 23/98/26 27/99/32
f 16/100/22 21/101/27 24/102/28
f 22/89/18 27/88/29 28/103/29
f 26/78/25 28/104/30 30/105/33
f 29/95/31 26/94/21 30/106/31
f 23/107/26 29/108/34 27/109/32
f 31/110/35 28/111/29 27/112/29
f 32/113/36 30/114/33 28/115/30
f 30/116/31 33/117/37 29/118/31
f 29/119/34 31/120/38 27/121/32
f 28/111/29 31/110/35 32/122/35
f 30/114/33 32/113/36 34/123/39
f 33/117/37 30/116/31 35/124/37
f 29/125/34 33/126/40 36/127/41
f 31/120/38 29/119/34 36/128/41
f 36/129/42 32/130/35 31/131/35
f 32/130/35 36/129/42 34/132/42
f 30/133/33 34/134/39 35/135/43
f 35/136/37 37/137/44 33/138/37
f 36/139/41 33/140/40 38/141/45
f 38/142/46 34/143/42 36/144/42
f 34/145/39 39/146/47 35/147/43
f 37/137/44 35/136/37 40/148/44
f 33/149/40 37/150/48 38/151/45
f 34/143/42 38/142/46 39/152/46
f 35/153/43 39/154/47 40/155/49
f 40/156/44 41/157/50 37/158/44
f 37/159/48 42/160/51 38/161/45
f 42/162/52 39/163/46 38/164/46
f 43/165/53 40/166/49 39/167/47
f 41/157/50 40/156/44 44/168/50
f 37/169/48 41/170/54 45/171/55
f 42/160/51 37/159/48 45/172/55
f 39/163/46 42/162/52 43/173/52
f 40/166/49 43/165/53 46/174/56
f 40/175/49 46/176/56 44/177/57
f 44/178/50 47/179/58 41/180/50
f 45/181/55 41/182/54 48/183/59
f 45/184/60 43/185/52 42/186/52
f 43/185/52 45/184/60 46/187/60
f 46/188/56 49/189/61 44/190/57
f 47/179/58 44/178/50 50/191/58
f 41/192/54 47/193/62 48/194/59
f 48/195/63 46/196/60 45/197/60
f 46/196/60 48/195/63 49/198/63
f 44/199/57 49/200/61 50/201/64
f 50/202/58 51/203/65 47/204/58
f 47/205/62 52/206/66 48/207/59
f 52/208/67 49/209/63 48/210/63
f 53/211/68 50/212/64 49/213/61
f 51/203/65 50/202/58 54/214/65
f 47/215/62 51/216/69 55/217/70
f 52/206/66 47/205/62 55/218/70
f 49/209/63 52/208/67 53/219/67
f 50/212/64 53/211/68 56/220/71
f 50/221/64 56/222/71 54/223/72
f 54/224/65 57/225/73 51/226/65
f 55/227/70 51/228/69 58/229/74
f 55/230/75 53/231/67 52/232/67
f 53/231/67 55/230/75 56/233/75
f 56/234/71 59/235/76 54/236/72
f 57/225/73 54/224/65 60/237/73
f 51/238/69 57/239/77 58/240/74
f 58/241/78 56/242/75 55/243/75
f 56/242/75 58/241/78 59/244/78
f 54/245/72 59/246/76 60/247/79
f 60/248/73 61/249/80 57/250/73
f 58/251/74 57/252/77 62/253/81
f 62/254/82 59/255/78 58/256/78
f 59/257/76 63/258/83 60/259/79
f 61/249/80 60/248/73 64/260/80
f 57/261/77 61/262/84 62/263/81
f 59/255/78 62/254/82 63/264/82
f 60/265/79 63/266/83 64/267/85
f 64/268/1 62/269/1 61/270/1
f 62/269/1 64/268/1 63/271/1
usemtl material_1_0
f 3//86 2//86 1//86
f 4//86 1//86 2//86
f 5//15 2//16 3//9
f 1//24 6//24 3//24
f 7//86 1//86 4//86
f 2//86 8//86 4//86
f 9//22 2//16 5//15
f 5//15 3//9 10//8
f 11//24 3//24 6//24
f 6//7 1//2 12//7
f 13//86 1//86 7//86
f 4//24 14//24 7//24
f 4//86 15//86 7//86
f 15//86 4//86 8//86
f 9//22 8//28 2//16
f 9//87 5//88 16//87
f 11//8 10//8 3//9
f 5//88 10//89 17//88
f 6//90 12//89 11//90
f 17//4 12//7 1//2
f 13//3 17//4 1//2
f 7//86 18//86 13//86
f 19//24 7//24 14//24
f 14//23 4//23 20//23
f 18//86 7//86 15//86
f 15//23 20//23 4//23
f 15//91 8//91 21//92
f 22//27 8//28 9//22
f 17//88 16//87 5//88
f 16//87 23//93 9//87
f 10//89 11//90 12//89
f 12//89 17//88 10//89
f 13//3 16//6 17//4
f 24//86 13//86 18//86
f 18//17 7//17 25//17
f 19//17 25//17 7//17
f 15//5 18//5 20//5
f 18//91 15//91 21//92
f 22//92 21//92 8//91
f 26//26 22//27 9//22
f 26//93 9//87 23//93
f 21//20 23//25 16//6
f 24//10 16//6 13//3
f 24//91 18//91 21//92
f 25//5 20//5 18//5
f 21//92 22//92 27//94
f 26//26 28//32 22//27
f 23//93 29//95 26//93
f 27//30 23//25 21//20
f 24//10 21//20 16//6
f 28//94 27//94 22//92
f 30//34 28//32 26//26
f 30//95 26//93 29//95
f 27//30 29//33 23//25
f 27//94 28//94 31//96
f 28//32 30//34 32//38
f 29//95 33//97 30//95
f 27//30 31//36 29//33
f 32//96 31//96 28//94
f 34//41 32//38 30//34
f 35//97 30//95 33//97
f 36//39 33//43 29//33
f 36//39 29//33 31//36
f 31//96 32//96 36//98
f 34//98 36//98 32//96
f 35//40 34//41 30//34
f 33//97 37//99 35//97
f 38//47 33//43 36//39
f 36//98 34//98 38//100
f 35//40 39//45 34//41
f 40//99 35//97 37//99
f 38//47 37//49 33//43
f 39//100 38//100 34//98
f 40//48 39//45 35//40
f 37//99 41//101 40//99
f 38//47 42//53 37//49
f 38//100 39//100 42//102
f 39//45 40//48 43//51
f 44//101 40//99 41//101
f 45//56 41//57 37//49
f 45//56 37//49 42//53
f 43//102 42//102 39//100
f 46//55 43//51 40//48
f 44//54 46//55 40//48
f 41//101 47//103 44//101
f 48//61 41//57 45//56
f 42//102 43//102 45//104
f 46//104 45//104 43//102
f 44//54 49//59 46//55
f 50//103 44//101 47//103
f 48//61 47//64 41//57
f 45//104 46//104 48//105
f 49//105 48//105 46//104
f 50//62 49//59 44//54
f 47//103 51//106 50//103
f 48//61 52//68 47//64
f 48//105 49//105 52//107
f 49//59 50//62 53//66
f 54//106 50//103 51//106
f 55//71 51//72 47//64
f 55//71 47//64 52//68
f 53//107 52//107 49//105
f 56//70 53//66 50//62
f 54//69 56//70 50//62
f 51//106 57//108 54//106
f 58//76 51//72 55//71
f 52//107 53//107 55//109
f 56//109 55//109 53//107
f 54//69 59//74 56//70
f 60//108 54//106 57//108
f 58//76 57//79 51//72
f 55//109 56//109 58//110
f 59//110 58//110 56//109
f 60//77 59//74 54//69
f 57//108 61//111 60//108
f 62//83 57//79 58//76
f 58//110 59//110 62//112
f 60//77 63//81 59//74
f 64//111 60//108 61//111
f 62//83 61//85 57//79
f 63//112 62//112 59//110
f 64//84 63//81 60//77
f 61//86 62//86 64//86
f 63//86 64//86 62//86
