# SSTK version 0.8.0
# 14
mtllib original-14.mtl
o Group_3_2/Group_3/mesh11/mesh11-geometry#mesh11-geometry
v -0.327855 0.350685 0.288055
v -0.328810 0.340942 0.288055
v -0.328810 0.350685 0.288055
v -0.327855 0.340942 0.288055
v -0.328810 0.350685 0.308205
v -0.327855 0.340942 0.307809
v -0.328810 0.340942 0.308205
v -0.327855 0.350685 0.307809
v -0.252974 0.350685 0.384041
v -0.252527 0.350685 0.383137
v -0.252527 0.340942 0.383137
v -0.252974 0.340942 0.384041
v -0.209353 0.340942 0.389849
v -0.209238 0.350685 0.388901
v -0.209238 0.340942 0.388901
v -0.209353 0.350685 0.389849
v -0.165915 0.340942 0.394572
v -0.165823 0.340942 0.393621
v -0.165823 0.350685 0.393621
v -0.165915 0.350685 0.394572
v -0.122376 0.340942 0.398248
v -0.122307 0.340942 0.397296
v -0.122307 0.350685 0.397296
v -0.122376 0.350685 0.398248
v -0.078761 0.340942 0.400876
v -0.078715 0.340942 0.399922
v -0.078715 0.350685 0.399922
v -0.078761 0.350685 0.400876
v -0.035095 0.340942 0.402453
v -0.035072 0.340942 0.401498
v -0.035072 0.350685 0.401498
v -0.035095 0.350685 0.402453
v 0.008596 0.340942 0.402978
v 0.008596 0.340942 0.402023
v 0.008596 0.350685 0.402023
v 0.008596 0.350685 0.402978
v 0.052286 0.340942 0.402453
v 0.052286 0.350685 0.402453
v 0.052263 0.350685 0.401498
v 0.052263 0.340942 0.401498
v 0.095952 0.340942 0.400876
v 0.095952 0.350685 0.400876
v 0.095906 0.350685 0.399922
v 0.095906 0.340942 0.399922
v 0.139567 0.340942 0.398248
v 0.139567 0.350685 0.398248
v 0.139498 0.350685 0.397296
v 0.139498 0.340942 0.397296
v 0.183106 0.340942 0.394572
v 0.183106 0.350685 0.394572
v 0.183014 0.350685 0.393621
v 0.183014 0.340942 0.393621
v 0.226544 0.340942 0.389849
v 0.226544 0.350685 0.389849
v 0.226429 0.350685 0.388901
v 0.226429 0.340942 0.388901
v 0.270180 0.340942 0.384039
v 0.270180 0.350685 0.384039
v 0.269718 0.350685 0.383137
v 0.269718 0.340942 0.383137
v 0.341691 0.340942 0.308189
v 0.341691 0.350685 0.308189
v 0.340736 0.350685 0.307809
v 0.340736 0.340942 0.307809
v 0.340736 0.340942 0.288055
v 0.341691 0.340942 0.288055
v 0.341691 0.350685 0.288055
v 0.340736 0.350685 0.288055
vt -0.0125 0.0125
vt -0.01125 0
vt -0.01125 0.0125
vt -0.0125 0
vt 0 0
vt 0.026371 0.0125
vt 0 0.0125
vt 0.026371 0.01125
vt 0 0.01125
vt -0.025853 0
vt -0.025853 0.0125
vt 0.026371 0
vt 0.025853 0.0125
vt -0.026371 0.01125
vt 0.026602 0
vt 0.166961 0.0125
vt 0.026602 0.0125
vt 0.124437 0.111084
vt -0.02712 0.0125
vt -0.166538 0
vt -0.02712 0
vt -0.124437 0.111084
vt 0.166961 0
vt 0.12562 0.110499
vt -0.166538 0.0125
vt -0.12562 0.110499
vt 0.183703 0
vt 0.126112 0.0125
vt 0.126112 0
vt 0.13198 0.167737
vt -0.183688 0.0125
vt -0.126535 0
vt -0.126535 0.0125
vt -0.13198 0.167737
vt 0.183703 0.0125
vt -0.133221 0.167587
vt 0.133221 0.167587
vt -0.183688 0
vt 0.238188 0
vt 0.181004 0.0125
vt 0.181004 0
vt -0.138157 0.224555
vt 0.138157 0.224555
vt -0.238173 0.0125
vt -0.18102 0
vt -0.18102 0.0125
vt 0.238188 0.0125
vt -0.139402 0.224435
vt -0.238173 0
vt 0.139402 0.224435
vt 0.292551 0
vt 0.235368 0.0125
vt 0.235368 0
vt -0.142966 0.281506
vt -0.292536 0.0125
vt -0.235383 0
vt -0.235383 0.0125
vt 0.142966 0.281506
vt 0.292551 0.0125
vt -0.144213 0.281415
vt -0.292536 0
vt 0.144213 0.281415
vt 0.346761 0
vt 0.289578 0.0125
vt 0.289578 0
vt -0.146403 0.338555
vt -0.346746 0.0125
vt -0.289593 0
vt -0.289593 0.0125
vt 0.146403 0.338555
vt 0.346761 0.0125
vt -0.147651 0.338495
vt -0.346746 0
vt 0.147651 0.338495
vt 0.400787 0
vt 0.343604 0.0125
vt 0.343604 0
vt -0.148465 0.395671
vt -0.400772 0.0125
vt -0.343619 0
vt -0.343619 0.0125
vt 0.148465 0.395671
vt 0.400787 0.0125
vt -0.149715 0.395641
vt -0.400772 0
vt 0.149715 0.395641
vt 0.454597 0
vt 0.397414 0.0125
vt 0.397414 0
vt -0.149153 0.45282
vt -0.454582 0.0125
vt -0.397429 0
vt -0.397429 0.0125
vt 0.149153 0.45282
vt 0.454597 0.0125
vt -0.149715 0.51
vt -0.150403 0.45282
vt -0.454582 0
vt 0.149715 0.51
vt 0.508161 0
vt 0.450978 0.0125
vt 0.450978 0
vt 0.150403 0.45282
vt -0.508146 0.0125
vt -0.450993 0
vt -0.450993 0.0125
vt -0.148465 0.509969
vt 0.148465 0.509969
vt 0.508161 0.0125
vt -0.508146 0
vt -0.147651 0.567146
vt 0.147651 0.567146
vt 0.561447 0
vt 0.504264 0.0125
vt 0.504264 0
vt -0.561432 0.0125
vt -0.504279 0
vt -0.504279 0.0125
vt -0.146403 0.567085
vt 0.146403 0.567085
vt 0.561447 0.0125
vt -0.561432 0
vt -0.144213 0.624225
vt 0.144213 0.624225
vt 0.614424 0
vt 0.557241 0.0125
vt 0.557241 0
vt -0.614409 0.0125
vt -0.557256 0
vt -0.557256 0.0125
vt -0.142966 0.624135
vt 0.142966 0.624135
vt 0.614424 0.0125
vt -0.614409 0
vt -0.139402 0.681206
vt 0.139402 0.681206
vt 0.667062 0
vt 0.609879 0.0125
vt 0.609879 0
vt -0.667047 0.0125
vt -0.609894 0
vt -0.609894 0.0125
vt -0.138157 0.681086
vt 0.138157 0.681086
vt 0.667062 0.0125
vt -0.667047 0
vt -0.133221 0.738054
vt 0.133221 0.738054
vt 0.662147 0
vt 0.71933 0.0125
vt 0.662147 0.0125
vt -0.719315 0.0125
vt -0.662162 0
vt -0.662162 0.0125
vt -0.13198 0.737904
vt 0.71933 0
vt 0.13198 0.737904
vt -0.719315 0
vt -0.125617 0.795162
vt 0.771627 0
vt 0.714015 0.0125
vt 0.714015 0
vt 0.125617 0.795162
vt -0.771184 0.0125
vt -0.71403 0
vt -0.71403 0.0125
vt -0.124437 0.794557
vt 0.771627 0.0125
vt 0.124437 0.794557
vt -0.771184 0
vt -0.02635 0.88875
vt 0.454067 0
vt 0.590495 0.0125
vt 0.454067 0.0125
vt 0.02635 0.88875
vt -0.589999 0.0125
vt -0.454511 0
vt -0.454511 0.0125
vt -0.025853 0.8875
vt 0.590495 0
vt 0.025853 0.8875
vt -0.589999 0
vt 0 0.8875
vt -0.02635 0.0125
vt -0.02635 0
vt 0 0.88875
vt 0.025853 0
vt -0.8875 0
vt -0.88875 0.0125
vt -0.88875 0
vt -0.8875 0.0125
vn 0 0 -1
vn -1 0 0
vn 0 1 0
vn 1 0 0
vn 0 -1 0
vn -0.7071067811865475 0 0.7071067811865475
vn 0.7071067811865475 0 -0.7071067811865475
vn -0.12004296343431865 0 0.9927686975977369
vn -0.1319810322122845 0 0.9912522419324861
vn 0.12004296343431865 0 -0.9927686975977369
vn 0.1319810322122845 0 -0.9912522419324861
vn -0.09611799486614578 0 0.9953699468353017
vn 0.09611799486614578 0 -0.9953699468353017
vn -0.0721369807829273 0 0.9973947342970704
vn 0.0721369807829273 0 -0.9973947342970704
vn -0.04811499051680093 0 0.9988418031337937
vn 0.04811499051680093 0 -0.9988418031337937
vn -0.02406401010452809 0 0.9997104197804928
vn 0.02406401010452809 0 -0.9997104197804928
vn 0 0 1
vn 0.02406401010452809 0 0.9997104197804928
vn -0.02406401010452809 0 -0.9997104197804928
vn 0.04811499051680093 0 0.9988418031337937
vn -0.04811499051680093 0 -0.9988418031337937
vn 0.0721369807829273 0 0.9973947342970704
vn -0.0721369807829273 0 -0.9973947342970704
vn 0.09611799486614578 0 0.9953699468353017
vn -0.09611799486614578 0 -0.9953699468353017
vn 0.12004296343431865 0 0.9927686975977369
vn -0.12004296343431865 0 -0.9927686975977369
vn 0.1319810322122845 0 0.9912522419324861
vn -0.1319810322122845 0 -0.9912522419324861
vn 0.7276173001502019 0 0.6859832829757084
vn -0.7276173001502019 0 -0.6859832829757084
usemtl material_0_0
f 1/1/1 2/2/1 3/3/1
f 2/2/1 1/1/1 4/4/1
f 2/5/2 5/6/2 3/7/2
f 5/8/3 1/7/3 3/9/3
f 1/7/4 6/10/4 4/5/4
f 6/11/5 2/9/5 4/7/5
f 5/6/2 2/5/2 7/12/2
f 1/7/3 5/8/3 8/13/3
f 6/10/4 1/7/4 8/11/4
f 2/9/5 6/11/5 7/14/5
f 7/15/6 9/16/6 5/17/6
f 8/13/3 5/8/3 10/18/3
f 8/19/7 11/20/7 6/21/7
f 7/14/5 6/11/5 11/22/5
f 9/16/6 7/15/6 12/23/6
f 10/18/3 5/8/3 9/24/3
f 11/20/7 8/19/7 10/25/7
f 7/14/5 11/22/5 12/26/5
f 13/27/8 9/28/9 12/29/9
f 10/18/3 9/24/3 14/30/3
f 14/31/10 11/32/11 10/33/11
f 12/26/5 11/22/5 15/34/5
f 9/28/9 13/27/8 16/35/8
f 12/26/5 15/34/5 13/36/5
f 14/30/3 9/24/3 16/37/3
f 11/32/11 14/31/10 15/38/10
f 17/39/12 16/40/8 13/41/8
f 13/36/5 15/34/5 18/42/5
f 14/30/3 16/37/3 19/43/3
f 19/44/13 15/45/10 14/46/10
f 16/40/8 17/39/12 20/47/12
f 13/36/5 18/42/5 17/48/5
f 15/45/10 19/44/13 18/49/13
f 19/43/3 16/37/3 20/50/3
f 21/51/14 20/52/12 17/53/12
f 17/48/5 18/42/5 22/54/5
f 23/55/15 18/56/13 19/57/13
f 19/43/3 20/50/3 23/58/3
f 20/52/12 21/51/14 24/59/14
f 17/48/5 22/54/5 21/60/5
f 18/56/13 23/55/15 22/61/15
f 23/58/3 20/50/3 24/62/3
f 25/63/16 24/64/14 21/65/14
f 21/60/5 22/54/5 26/66/5
f 27/67/17 22/68/15 23/69/15
f 23/58/3 24/62/3 27/70/3
f 24/64/14 25/63/16 28/71/16
f 21/60/5 26/66/5 25/72/5
f 22/68/15 27/67/17 26/73/17
f 27/70/3 24/62/3 28/74/3
f 29/75/18 28/76/16 25/77/16
f 25/72/5 26/66/5 30/78/5
f 31/79/19 26/80/17 27/81/17
f 27/70/3 28/74/3 31/82/3
f 28/76/16 29/75/18 32/83/18
f 25/72/5 30/78/5 29/84/5
f 26/80/17 31/79/19 30/85/19
f 31/82/3 28/74/3 32/86/3
f 33/87/20 32/88/18 29/89/18
f 29/84/5 30/78/5 34/90/5
f 35/91/1 30/92/19 31/93/19
f 31/82/3 32/86/3 35/94/3
f 32/88/18 33/87/20 36/95/20
f 29/84/5 37/96/5 33/97/5
f 30/92/19 35/91/1 34/98/1
f 29/84/5 34/90/5 37/96/5
f 35/94/3 32/86/3 38/99/3
f 37/100/21 36/101/20 33/102/20
f 38/99/3 32/86/3 36/103/3
f 39/104/22 34/105/1 35/106/1
f 40/107/5 37/96/5 34/90/5
f 38/99/3 39/108/3 35/94/3
f 36/101/20 37/100/21 38/109/21
f 34/105/1 39/104/22 40/110/22
f 40/107/5 41/111/5 37/96/5
f 42/112/3 39/108/3 38/99/3
f 41/113/23 38/114/21 37/115/21
f 43/116/24 40/117/22 39/118/22
f 44/119/5 41/111/5 40/107/5
f 42/112/3 43/120/3 39/108/3
f 38/114/21 41/113/23 42/121/23
f 40/117/22 43/116/24 44/122/24
f 44/119/5 45/123/5 41/111/5
f 46/124/3 43/120/3 42/112/3
f 45/125/25 42/126/23 41/127/23
f 47/128/26 44/129/24 43/130/24
f 48/131/5 45/123/5 44/119/5
f 46/124/3 47/132/3 43/120/3
f 42/126/23 45/125/25 46/133/25
f 44/129/24 47/128/26 48/134/26
f 48/131/5 49/135/5 45/123/5
f 50/136/3 47/132/3 46/124/3
f 49/137/27 46/138/25 45/139/25
f 51/140/28 48/141/26 47/142/26
f 52/143/5 49/135/5 48/131/5
f 50/136/3 51/144/3 47/132/3
f 46/138/25 49/137/27 50/145/27
f 48/141/26 51/140/28 52/146/28
f 52/143/5 53/147/5 49/135/5
f 54/148/3 51/144/3 50/136/3
f 49/149/27 54/150/29 50/151/27
f 55/152/30 52/153/28 51/154/28
f 56/155/5 53/147/5 52/143/5
f 54/150/29 49/149/27 53/156/29
f 54/148/3 55/157/3 51/144/3
f 52/153/28 55/152/30 56/158/30
f 56/155/5 57/159/5 53/147/5
f 57/160/31 54/161/29 53/162/29
f 58/163/3 55/157/3 54/148/3
f 59/164/32 56/165/30 55/166/30
f 60/167/5 57/159/5 56/155/5
f 54/161/29 57/160/31 58/168/31
f 58/163/3 59/169/3 55/157/3
f 56/165/30 59/164/32 60/170/32
f 60/167/5 61/171/5 57/159/5
f 57/172/33 62/173/33 58/174/33
f 62/175/3 59/169/3 58/163/3
f 63/176/34 60/177/34 59/178/34
f 64/179/5 61/171/5 60/167/5
f 62/173/33 57/172/33 61/180/33
f 62/175/3 63/181/3 59/169/3
f 60/177/34 63/176/34 64/182/34
f 65/183/5 61/171/5 64/179/5
f 66/5/4 62/184/4 61/185/4
f 67/186/3 63/181/3 62/175/3
f 63/13/2 65/5/2 64/187/2
f 61/171/5 65/183/5 66/186/5
f 62/184/4 66/5/4 67/7/4
f 63/181/3 67/186/3 68/183/3
f 65/5/2 63/13/2 68/7/2
f 65/188/1 67/189/1 66/190/1
f 67/189/1 65/188/1 68/191/1
usemtl material_1_0
f 3//20 2//20 1//20
f 4//20 1//20 2//20
f 3//4 5//4 2//4
f 3//5 1//5 5//5
f 4//2 6//2 1//2
f 4//3 2//3 6//3
f 7//4 2//4 5//4
f 8//5 5//5 1//5
f 8//2 1//2 6//2
f 7//3 6//3 2//3
f 5//7 9//7 7//7
f 10//5 5//5 8//5
f 6//6 11//6 8//6
f 11//3 6//3 7//3
f 12//7 7//7 9//7
f 9//5 5//5 10//5
f 10//6 8//6 11//6
f 12//3 11//3 7//3
f 12//11 9//11 13//10
f 14//5 9//5 10//5
f 10//9 11//9 14//8
f 15//3 11//3 12//3
f 16//10 13//10 9//11
f 13//3 15//3 12//3
f 16//5 9//5 14//5
f 15//8 14//8 11//9
f 13//10 16//10 17//13
f 18//3 15//3 13//3
f 19//5 16//5 14//5
f 14//8 15//8 19//12
f 20//13 17//13 16//10
f 17//3 18//3 13//3
f 18//12 19//12 15//8
f 20//5 16//5 19//5
f 17//13 20//13 21//15
f 22//3 18//3 17//3
f 19//12 18//12 23//14
f 23//5 20//5 19//5
f 24//15 21//15 20//13
f 21//3 22//3 17//3
f 22//14 23//14 18//12
f 24//5 20//5 23//5
f 21//15 24//15 25//17
f 26//3 22//3 21//3
f 23//14 22//14 27//16
f 27//5 24//5 23//5
f 28//17 25//17 24//15
f 25//3 26//3 21//3
f 26//16 27//16 22//14
f 28//5 24//5 27//5
f 25//17 28//17 29//19
f 30//3 26//3 25//3
f 27//16 26//16 31//18
f 31//5 28//5 27//5
f 32//19 29//19 28//17
f 29//3 30//3 25//3
f 30//18 31//18 26//16
f 32//5 28//5 31//5
f 29//19 32//19 33//1
f 34//3 30//3 29//3
f 31//18 30//18 35//20
f 35//5 32//5 31//5
f 36//1 33//1 32//19
f 33//3 37//3 29//3
f 34//20 35//20 30//18
f 37//3 34//3 29//3
f 38//5 32//5 35//5
f 33//1 36//1 37//22
f 36//5 32//5 38//5
f 35//20 34//20 39//21
f 34//3 37//3 40//3
f 35//5 39//5 38//5
f 38//22 37//22 36//1
f 40//21 39//21 34//20
f 37//3 41//3 40//3
f 38//5 39//5 42//5
f 37//22 38//22 41//24
f 39//21 40//21 43//23
f 40//3 41//3 44//3
f 39//5 43//5 42//5
f 42//24 41//24 38//22
f 44//23 43//23 40//21
f 41//3 45//3 44//3
f 42//5 43//5 46//5
f 41//24 42//24 45//26
f 43//23 44//23 47//25
f 44//3 45//3 48//3
f 43//5 47//5 46//5
f 46//26 45//26 42//24
f 48//25 47//25 44//23
f 45//3 49//3 48//3
f 46//5 47//5 50//5
f 45//26 46//26 49//28
f 47//25 48//25 51//27
f 48//3 49//3 52//3
f 47//5 51//5 50//5
f 50//28 49//28 46//26
f 52//27 51//27 48//25
f 49//3 53//3 52//3
f 50//5 51//5 54//5
f 50//28 54//30 49//28
f 51//27 52//27 55//29
f 52//3 53//3 56//3
f 53//30 49//28 54//30
f 51//5 55//5 54//5
f 56//29 55//29 52//27
f 53//3 57//3 56//3
f 53//30 54//30 57//32
f 54//5 55//5 58//5
f 55//29 56//29 59//31
f 56//3 57//3 60//3
f 58//32 57//32 54//30
f 55//5 59//5 58//5
f 60//31 59//31 56//29
f 57//3 61//3 60//3
f 58//34 62//34 57//34
f 58//5 59//5 62//5
f 59//33 60//33 63//33
f 60//3 61//3 64//3
f 61//34 57//34 62//34
f 59//5 63//5 62//5
f 64//33 63//33 60//33
f 64//3 61//3 65//3
f 61//2 62//2 66//2
f 62//5 63//5 67//5
f 64//4 65//4 63//4
f 66//3 65//3 61//3
f 67//2 66//2 62//2
f 68//5 67//5 63//5
f 68//4 63//4 65//4
f 66//20 67//20 65//20
f 68//20 65//20 67//20
